#N canvas 44 88 1535 803 10;
#X obj 304 661 dac~;
#X obj 28 99 noise~;
#X obj 30 252 bp~ 0 50;
#X obj 119 408 *~;
#X obj 134 372 r~ p1;
#X obj 378 99 noise~;
#X obj 380 265 bp~ 0 50;
#X obj 395 433 *~;
#X obj 451 412 r~ p2;
#X obj 695 93 noise~;
#X obj 699 244 bp~ 0 50;
#X obj 676 442 *~;
#X obj 732 421 r~ p3;
#N canvas 131 123 1460 772 combined_mixer 0;
#X obj 322 70 inlet~;
#X obj 556 71 inlet~;
#X obj 775 71 inlet~;
#X obj 75 68 inlet~;
#N canvas 126 507 450 300 panner 0;
#X obj 150 27 inlet~;
#X obj 245 27 inlet;
#X obj 248 115 cos~;
#X obj 326 118 cos~;
#X obj 164 179 *~;
#X obj 258 178 *~;
#X obj 327 84 + 0.75;
#X obj 247 53 * 0.25;
#X obj 165 239 outlet~;
#X obj 274 235 outlet~;
#X connect 0 0 5 0;
#X connect 0 0 4 0;
#X connect 1 0 7 0;
#X connect 2 0 4 1;
#X connect 3 0 5 1;
#X connect 4 0 8 0;
#X connect 5 0 9 0;
#X connect 6 0 3 0;
#X connect 7 0 2 0;
#X connect 7 0 6 0;
#X restore 77 226 pd panner;
#N canvas 126 507 450 300 panner 0;
#X obj 150 27 inlet~;
#X obj 245 27 inlet;
#X obj 248 115 cos~;
#X obj 326 118 cos~;
#X obj 164 179 *~;
#X obj 258 178 *~;
#X obj 327 84 + 0.75;
#X obj 247 53 * 0.25;
#X obj 165 239 outlet~;
#X obj 274 235 outlet~;
#X connect 0 0 5 0;
#X connect 0 0 4 0;
#X connect 1 0 7 0;
#X connect 2 0 4 1;
#X connect 3 0 5 1;
#X connect 4 0 8 0;
#X connect 5 0 9 0;
#X connect 6 0 3 0;
#X connect 7 0 2 0;
#X connect 7 0 6 0;
#X restore 307 226 pd panner;
#N canvas 126 507 450 300 panner 0;
#X obj 150 27 inlet~;
#X obj 245 27 inlet;
#X obj 248 115 cos~;
#X obj 326 118 cos~;
#X obj 164 179 *~;
#X obj 258 178 *~;
#X obj 327 84 + 0.75;
#X obj 247 53 * 0.25;
#X obj 165 239 outlet~;
#X obj 274 235 outlet~;
#X connect 0 0 5 0;
#X connect 0 0 4 0;
#X connect 1 0 7 0;
#X connect 2 0 4 1;
#X connect 3 0 5 1;
#X connect 4 0 8 0;
#X connect 5 0 9 0;
#X connect 6 0 3 0;
#X connect 7 0 2 0;
#X connect 7 0 6 0;
#X restore 557 226 pd panner;
#N canvas 126 507 450 300 panner 0;
#X obj 150 27 inlet~;
#X obj 245 27 inlet;
#X obj 248 115 cos~;
#X obj 326 118 cos~;
#X obj 164 179 *~;
#X obj 258 178 *~;
#X obj 327 84 + 0.75;
#X obj 247 53 * 0.25;
#X obj 165 239 outlet~;
#X obj 274 235 outlet~;
#X connect 0 0 5 0;
#X connect 0 0 4 0;
#X connect 1 0 7 0;
#X connect 2 0 4 1;
#X connect 3 0 5 1;
#X connect 4 0 8 0;
#X connect 5 0 9 0;
#X connect 6 0 3 0;
#X connect 7 0 2 0;
#X connect 7 0 6 0;
#X restore 787 226 pd panner;
#X obj 264 628 outlet~;
#X obj 418 636 outlet~;
#X obj 539 417 r \$0-mute;
#X obj 643 416 r \$0-volume;
#X obj 712 384 loadbang;
#X obj 583 382 loadbang;
#X msg 731 413 150;
#X obj 590 534 *~;
#X obj 536 444 pack 1 0;
#X obj 645 442 pack 1 0;
#X obj 644 466 line~ 1 20;
#X obj 536 467 line~ 1 20;
#X msg 606 411 500;
#X obj 297 568 *~;
#X obj 379 568 *~;
#X obj 213 158 r p1_pan;
#X obj 375 156 r p2_pan;
#X obj 593 181 r p3_pan;
#X obj 828 178 r p4_pan;
#X obj 162 410 *~ 1;
#X obj 294 409 *~ 1;
#X connect 0 0 5 0;
#X connect 1 0 6 0;
#X connect 2 0 7 0;
#X connect 3 0 4 0;
#X connect 4 0 27 0;
#X connect 4 1 28 0;
#X connect 5 0 27 0;
#X connect 5 1 28 0;
#X connect 6 0 27 0;
#X connect 6 1 28 0;
#X connect 10 0 16 0;
#X connect 11 0 17 0;
#X connect 12 0 14 0;
#X connect 13 0 20 0;
#X connect 14 0 17 1;
#X connect 15 0 21 1;
#X connect 15 0 22 1;
#X connect 16 0 19 0;
#X connect 17 0 18 0;
#X connect 18 0 15 1;
#X connect 19 0 15 0;
#X connect 20 0 16 1;
#X connect 21 0 8 0;
#X connect 22 0 9 0;
#X connect 23 0 4 1;
#X connect 24 0 5 1;
#X connect 25 0 6 1;
#X connect 26 0 7 1;
#X connect 27 0 21 0;
#X connect 28 0 22 0;
#X restore 284 516 pd combined_mixer;
#N canvas 0 23 1423 684 combined_inputs 0;
#X obj 678 114 r \$0-p2;
#X obj 680 144 pack 0 0;
#X obj 680 167 line~ 0 20;
#X msg 803 30 150;
#X obj 680 192 s~ p2;
#X obj 804 58 s interp;
#X obj 740 113 r interp;
#X obj 818 143 pack 0 0;
#X obj 818 166 line~ 0 20;
#X obj 878 112 r interp;
#X obj 816 113 r \$0-p3;
#X obj 818 191 s~ p3;
#X obj 554 143 pack 0 0;
#X obj 554 166 line~ 0 20;
#X obj 614 112 r interp;
#X obj 552 113 r \$0-p1;
#X obj 554 191 s~ p1;
#X obj 801 6 loadbang;
#X obj 56 59 pack 0 0;
#X obj 152 28 r interp;
#X obj 61 177 pack 0 0;
#X obj 157 146 r interp;
#X obj 61 290 pack 0 0;
#X obj 157 259 r interp;
#X obj 56 107 s p1_pan;
#X obj 54 29 r \$0-p1_pan;
#X obj 59 147 r \$0-p2_pan;
#X obj 61 225 s p2_pan;
#X obj 59 260 r \$0-p3_pan;
#X obj 61 338 s p3_pan;
#X obj 56 82 line 0 20;
#X obj 61 200 line 0 20;
#X obj 61 313 line 0 20;
#X obj 980 141 pack 0 0;
#X obj 980 164 line~ 0 20;
#X obj 1040 110 r interp;
#X obj 978 111 r \$0-v1;
#X obj 980 189 s~ v1;
#X obj 1139 139 pack 0 0;
#X obj 1139 162 line~ 0 20;
#X obj 1199 108 r interp;
#X obj 1137 109 r \$0-v2;
#X obj 1139 187 s~ v2;
#X obj 1152 303 pack 0 0;
#X obj 1152 326 line~ 0 20;
#X obj 1212 272 r interp;
#X obj 1150 273 r \$0-tv;
#X obj 1152 351 s~ tv;
#X obj 57 427 pack 0 0;
#X obj 153 396 r interp;
#X obj 57 450 line 0 20;
#X obj 55 397 r \$0-v1_pan;
#X obj 57 475 s v1_pan;
#X obj 56 544 pack 0 0;
#X obj 152 513 r interp;
#X obj 56 567 line 0 20;
#X obj 54 514 r \$0-v2_pan;
#X obj 56 592 s v2_pan;
#X obj 267 427 pack 0 0;
#X obj 363 396 r interp;
#X obj 267 450 line 0 20;
#X obj 265 397 r \$0-tv_pan;
#X obj 267 475 s tv_pan;
#X connect 0 0 1 0;
#X connect 1 0 2 0;
#X connect 2 0 4 0;
#X connect 3 0 5 0;
#X connect 6 0 1 1;
#X connect 7 0 8 0;
#X connect 8 0 11 0;
#X connect 9 0 7 1;
#X connect 10 0 7 0;
#X connect 12 0 13 0;
#X connect 13 0 16 0;
#X connect 14 0 12 1;
#X connect 15 0 12 0;
#X connect 17 0 3 0;
#X connect 18 0 30 0;
#X connect 19 0 18 1;
#X connect 20 0 31 0;
#X connect 21 0 20 1;
#X connect 22 0 32 0;
#X connect 23 0 22 1;
#X connect 25 0 18 0;
#X connect 26 0 20 0;
#X connect 28 0 22 0;
#X connect 30 0 24 0;
#X connect 31 0 27 0;
#X connect 32 0 29 0;
#X connect 33 0 34 0;
#X connect 34 0 37 0;
#X connect 35 0 33 1;
#X connect 36 0 33 0;
#X connect 38 0 39 0;
#X connect 39 0 42 0;
#X connect 40 0 38 1;
#X connect 41 0 38 0;
#X connect 43 0 44 0;
#X connect 44 0 47 0;
#X connect 45 0 43 1;
#X connect 46 0 43 0;
#X connect 48 0 50 0;
#X connect 49 0 48 1;
#X connect 50 0 52 0;
#X connect 51 0 48 0;
#X connect 53 0 55 0;
#X connect 54 0 53 1;
#X connect 55 0 57 0;
#X connect 56 0 53 0;
#X connect 58 0 60 0;
#X connect 59 0 58 1;
#X connect 60 0 62 0;
#X connect 61 0 58 0;
#X restore 1020 637 pd combined_inputs;
#X obj 1259 601 s 1-zample_number;
#X obj 1240 128 tgl 20 1 gran1-mute empty empty 0 -6 0 8 -258699 -1
-1 0 1;
#X obj 1262 165 vsl 20 96 -100 20 0 0 gran1gain empty empty 5 12 0
12 -44926 -1 -1 0 1;
#X obj 1305 148 hsl 100 15 2 200 1 1 1-zample_envelope_min empty envelope
6 7 0 8 -262144 -1 -1 5500 1;
#X obj 1412 152 nbx 5 14 0 50 0 1 1-zample_envelope_sprd empty range
60 8 0 10 -262144 -1 -1 22 256;
#X obj 1304 173 hsl 100 15 1 5000 1 1 1-zample_sustain_min empty length
6 7 0 8 -262144 -1 -1 5900 1;
#X obj 1412 174 nbx 5 14 0 100 0 1 1-zample_sustain_sprd empty range
60 8 0 10 -262144 -1 -1 43 256;
#X obj 1302 195 hsl 100 15 0 100 0 1 1-zample_gain_min 20-midi gain
6 7 0 8 -262144 -1 -1 1800 1;
#X obj 1412 195 nbx 5 14 0 100 0 1 1-zample_gain_sprd empty range 60
8 0 10 -262144 -1 -1 0 256;
#X obj 1294 220 hsl 100 15 0 100 0 1 1-zample_pan_sprd empty stereo_spread
6 7 0 8 -262144 -1 -1 2000 1;
#X obj 1415 214 hsl 75 15 0 120 0 1 gran1pan empty pan 1 8 0 8 -262144
-1 -1 2100 1;
#X obj 1419 249 hsl 75 15 1 32 0 1 1-zample_voices empty vox 15 9 0
8 -262144 -1 -1 3000 1;
#X obj 1318 282 hsl 100 15 99 0 0 1 1-zample_asynch empty asynch 15
9 0 8 -262144 -1 -1 9900 1;
#X obj 1371 553 hradio 15 1 1 8 empty empty sample_number 20 7 0 8
-262144 -1 -1 0;
#X obj 1513 214 nbx 5 14 0 10000 0 1 readspread empty grain_spread
60 7 0 10 -262144 -1 -1 374 256;
#X obj 1684 119 cnv 15 200 150 empty empty reverb 130 140 0 14 -71869
-66577 0;
#X obj 1694 129 tgl 20 1 rev-mute empty empty 0 -6 0 8 -258699 -1 -1
0 1;
#X obj 1723 131 vsl 20 96 -100 20 0 0 reverbgain empty empty 5 12 0
12 -44926 -1 -1 0 1;
#X obj 1758 129 hsl 100 15 0 99 0 1 reverb_room empty room_size 6 7
0 8 -262144 -1 -1 9900 1;
#X obj 1759 153 hsl 100 15 0 100 0 1 reverb_damp empty damping 6 7
0 8 -262144 -1 -1 6000 1;
#X obj 1759 195 hsl 100 15 0 100 0 1 reverb_wetdry empty dry/wet 6
7 0 8 -262144 -1 -1 9800 1;
#X obj 1759 215 hsl 100 15 0 127 0 1 reverb_width empty stereo_width
6 7 0 8 -262144 -1 -1 9900 1;
#X obj 1513 151 nbx 5 14 -1e+37 1e+37 0 0 readpositionin tableloc scan_target
60 7 0 10 -62784 -1 -1 0 256;
#X obj 1513 173 nbx 6 14 -1e+37 1e+37 0 0 empty scan_speed scan_interpolation
60 7 0 10 -62784 -1 -1 0 256;
#X obj 1513 234 nbx 5 14 0 10000 0 0 empty ave_g_length ave_grain_length
60 7 0 10 -62784 -1 -1 211.779 256;
#X text 1744 282 click 2 load samples;
#X text 1713 379 x 1;
#X obj 1692 282 cnv 15 51 16 empty empty empty 20 12 0 14 -233017 -66577
0;
#N canvas 650 68 450 300 load 0;
#X msg 21 44 bang;
#N canvas 219 266 450 300 zample-loader1 0;
#X obj 72 78 inlet;
#X obj 71 110 openpanel;
#X obj 71 195 soundfiler;
#N canvas 0 22 450 300 (subpatch) 0;
#X array 1-zample 1 float 0;
#X coords 0 1 1 -1 120 30 1;
#X restore 130 134 graph;
#X obj 71 251 s 1-zample_size;
#X msg 81 216 \; 1-zample resize \$1;
#X msg 102 169 read -resize -maxsize 1e+07 \$1 1-zample;
#X obj 39 44 r \$0-load_zample_1;
#X connect 0 0 1 0;
#X connect 1 0 6 0;
#X connect 2 0 5 0;
#X connect 2 0 4 0;
#X connect 6 0 2 0;
#X connect 7 0 2 0;
#X restore 41 126 pd zample-loader1;
#N canvas 192 190 450 300 zample-loader2 0;
#X obj 72 78 inlet;
#X obj 71 110 openpanel;
#X obj 71 195 soundfiler;
#N canvas 0 22 450 300 (subpatch) 0;
#X array 2-zample 821436 float 0;
#X coords 0 1 821435 -1 120 30 1;
#X restore 130 134 graph;
#X msg 81 216 \; 2-zample resize \$1;
#X obj 71 251 s 2-zample_size;
#X msg 71 173 read -resize -maxsize 1e+07 \$1 2-zample;
#X obj 39 44 r \$0-load_zample_2;
#X connect 0 0 1 0;
#X connect 1 0 6 0;
#X connect 2 0 4 0;
#X connect 2 0 5 0;
#X connect 6 0 2 0;
#X connect 7 0 2 0;
#X restore 42 148 pd zample-loader2;
#N canvas 0 22 450 300 zample-loader3 0;
#X obj 72 78 inlet;
#X obj 71 110 openpanel;
#X obj 71 195 soundfiler;
#N canvas 0 22 450 300 (subpatch) 0;
#X array 3-zample 1.18776e+06 float 0;
#X coords 0 1 1.18776e+06 -1 120 30 1;
#X restore 130 134 graph;
#X msg 81 216 \; 3-zample resize \$1;
#X obj 71 251 s 3-zample_size;
#X msg 71 173 read -resize -maxsize 1e+07 \$1 3-zample;
#X obj 39 44 r \$0-load_zample_3;
#X connect 0 0 1 0;
#X connect 1 0 6 0;
#X connect 2 0 4 0;
#X connect 2 0 5 0;
#X connect 6 0 2 0;
#X connect 7 0 2 0;
#X restore 171 126 pd zample-loader3;
#N canvas 0 22 450 300 zample-loader4 0;
#X obj 72 78 inlet;
#X obj 71 110 openpanel;
#X obj 71 195 soundfiler;
#N canvas 0 22 450 300 (subpatch) 0;
#X array 4-zample 34924 float 0;
#X coords 0 1 34923 -1 120 30 1;
#X restore 130 134 graph;
#X msg 81 216 \; 4-zample resize \$1;
#X obj 71 251 s 4-zample_size;
#X msg 71 173 read -resize -maxsize 1e+07 \$1 4-zample;
#X obj 22 54 r \$0-load_zample_4;
#X connect 0 0 1 0;
#X connect 1 0 6 0;
#X connect 2 0 4 0;
#X connect 2 0 5 0;
#X connect 6 0 2 0;
#X connect 7 0 2 0;
#X restore 172 148 pd zample-loader4;
#N canvas 0 22 450 300 zample-loader5 0;
#X obj 72 78 inlet;
#X obj 71 110 openpanel;
#X obj 71 195 soundfiler;
#N canvas 0 22 450 300 (subpatch) 0;
#X array 5-zample 8.47884e+06 float 0;
#X coords 0 1 8.47884e+06 -1 120 30 1;
#X restore 130 134 graph;
#X msg 81 216 \; 5-zample resize \$1;
#X obj 71 251 s 5-zample_size;
#X msg 71 173 read -resize -maxsize 1e+07 \$1 5-zample;
#X obj 39 44 r \$0-load_zample_5;
#X connect 0 0 1 0;
#X connect 1 0 6 0;
#X connect 2 0 4 0;
#X connect 2 0 5 0;
#X connect 6 0 2 0;
#X connect 7 0 2 0;
#X restore 41 176 pd zample-loader5;
#N canvas 0 22 450 300 zample-loader6 0;
#X obj 72 78 inlet;
#X obj 71 110 openpanel;
#X obj 71 195 soundfiler;
#N canvas 0 22 450 300 (subpatch) 0;
#X array 6-zample 40320 float 0;
#X coords 0 1 40319 -1 120 30 1;
#X restore 130 134 graph;
#X msg 81 216 \; 6-zample resize \$1;
#X obj 71 251 s 6-zample_size;
#X msg 71 173 read -resize -maxsize 1e+07 \$1 6-zample;
#X obj 39 44 r \$0-load_zample_6;
#X connect 0 0 1 0;
#X connect 1 0 6 0;
#X connect 2 0 4 0;
#X connect 2 0 5 0;
#X connect 6 0 2 0;
#X connect 7 0 2 0;
#X restore 41 199 pd zample-loader6;
#N canvas 0 22 450 300 zample-loader8 0;
#X obj 72 78 inlet;
#X obj 71 110 openpanel;
#X obj 71 195 soundfiler;
#N canvas 0 22 450 300 (subpatch) 0;
#X array 8-zample 1.18776e+06 float 0;
#X coords 0 1 1.18776e+06 -1 120 30 1;
#X restore 130 134 graph;
#X msg 81 216 \; 8-zample resize \$1;
#X obj 71 251 s 8-zample_size;
#X msg 71 173 read -resize -maxsize 1e+07 \$1 8-zample;
#X obj 39 44 r \$0-load_zample_8;
#X connect 0 0 1 0;
#X connect 1 0 6 0;
#X connect 2 0 4 0;
#X connect 2 0 5 0;
#X connect 6 0 2 0;
#X connect 7 0 2 0;
#X restore 171 199 pd zample-loader8;
#X msg 71 44 bang;
#X msg 121 44 bang;
#X msg 173 44 bang;
#X msg 51 74 bang;
#X msg 101 74 bang;
#X msg 151 74 bang;
#X msg 201 74 bang;
#N canvas 0 22 450 300 zample-loader7 0;
#X obj 72 78 inlet;
#X obj 71 110 openpanel;
#X obj 71 195 soundfiler;
#N canvas 0 22 450 300 (subpatch) 0;
#X array 7-zample 34595 float 0;
#X coords 0 1 34594 -1 120 30 1;
#X restore 130 134 graph;
#X msg 81 216 \; 7-zample resize \$1;
#X obj 71 251 s 7-zample_size;
#X msg 71 173 read -resize -maxsize 1e+07 \$1 7-zample;
#X obj 39 44 r \$0-load_zample_7;
#X connect 0 0 1 0;
#X connect 1 0 6 0;
#X connect 2 0 4 0;
#X connect 2 0 5 0;
#X connect 6 0 2 0;
#X connect 7 0 2 0;
#X restore 171 176 pd zample-loader7;
#X connect 0 0 1 0;
#X connect 8 0 2 0;
#X connect 9 0 3 0;
#X connect 10 0 4 0;
#X connect 11 0 5 0;
#X connect 12 0 6 0;
#X connect 13 0 15 0;
#X connect 14 0 7 0;
#X restore 1692 282 pd load;
#X obj 1304 253 hsl 100 15 0 500 0 1 jitter empty jitter 15 9 0 8 -262144
-1 -1 1200 1;
#X obj 1513 195 nbx 5 14 -1e+37 1e+37 0 0 empty 1-zample_start_min
current_position 60 7 0 10 -62784 -1 -1 0 256;
#N canvas 540 337 768 651 table_locator 0;
#X obj 229 18 inlet;
#X obj 229 47 select 0;
#X obj 299 47 select 1;
#X obj 363 45 select 2;
#X msg 229 70 1;
#X msg 299 70 10;
#X msg 363 67 100;
#X obj 229 114 line;
#X obj 229 92 pack 0 100;
#X obj -44 18 inlet;
#X obj 170 16 inlet;
#X obj -60 223 line;
#X obj 162 132 *;
#X obj -60 203 pack 0 0;
#X obj 99 169 t b f;
#X obj -60 177 f;
#X obj 170 244 s scan_speed;
#X obj -60 246 s readpositionout;
#X obj -9 275 s tableloc;
#X text -72 -3 x coordinates = read position;
#X text -4 225 range = 0-1000;
#X text 158 -3 y coordinates = scan speed interpolation;
#X text 181 221 range = 0-10000;
#X text 130 306 If you do not have the Grid object \, you can hack
this subpatch to control Particlechamber.;
#X connect 0 0 1 0;
#X connect 0 0 2 0;
#X connect 0 0 3 0;
#X connect 1 0 4 0;
#X connect 2 0 5 0;
#X connect 3 0 6 0;
#X connect 4 0 8 0;
#X connect 5 0 8 0;
#X connect 6 0 8 0;
#X connect 7 0 12 1;
#X connect 8 0 7 0;
#X connect 9 0 15 1;
#X connect 9 0 18 0;
#X connect 10 0 12 0;
#X connect 11 0 17 0;
#X connect 12 0 14 0;
#X connect 12 0 16 0;
#X connect 13 0 11 0;
#X connect 14 0 15 0;
#X connect 14 1 13 1;
#X connect 15 0 13 0;
#X restore 1561 405 pd table_locator;
#X obj 1693 379 vradio 15 1 1 3 empty empty empty 0 -6 0 8 -262144
-1 -1 0;
#X text 1713 394 x 10;
#X text 1713 408 x 100;
#X text 1754 379 gear-shift for;
#X text 1754 394 interpolation;
#X text 1754 408 speed;
#N canvas 30 22 877 674 README 0;
#X text 453 209 The freeverb~ external can be downloaded here: http://www.akustische-kunst.org/puredata/main.html
;
#X text 7 320 Operation of Particlechamber:;
#X text 452 341 Asynch randomizes which grains are passed through \,
from almost none to all. Vox activates or deactivates each of the 32
voices. Grain_spread makes small adjustments in the read position \,
which can be used to either add a reverb- or chorus-like effect \,
or to completely time-smear a file. Jitter makes larger adjustments
in the read position \, resulting in various degrees of time-scrambling.
;
#X text 453 441 The XY controller at the bottom determines the read
position in the sample. This controller has an interpolation scale
\, adjustable by the gear-shift on the right. This means that Particlechamber
will scan more slowly or quickly through the file depending on the
cursor's Y position multiplied by the interpolation factor.;
#X text 278 6 Particlechamber by Derek Holzer [Umatic.nl];
#X text 241 565 Particlechamber is free software and comes without
any warrenty that it will do ANYTHING like what I say it will. Enjoy
it all the same.;
#X text 535 623 derek@umatic.nl;
#X text 28 398 The red buttons mute and unmute the file granulator
and the reverb. The large vertical sliders are gain for each section.
The reverb is post-fader from the file granulator \, and can be bypassed
either by muting it or with the wet/dry slider.;
#X text 29 341 Open the Load subpatch and click the bangs to load samples.
It is better to do this before you start playing \, because loading
soundfiles can cause audible glitches in PD's performance. Sorry...
;
#X text 28 468 The envelope is a linear ramp \, so a length of 0 means
a pure triangular "window" for each grain. [(envelope x 2)+ length=
average grain length in ms]. Stereo_spread randomly pans each grain
to a wider or lesser field. The range feature randomizes each parameter
as a percentage plus or minus the given number.;
#X text 453 137 It would be best to take Grid from the PD External
Repository: http://pure-data.sourceforge.net;
#X text 453 172 However \, Yves Degoyon's Grid external can also be
found here: http://ydegoyon.free.fr/software.html;
#X text 453 35 Particlechamber requires a few externals to run. It
uses Freeverb~ for its reverb section [although you could easily replace
it with another reverb] \, and uses Grid as a major GUI element [although
you could hack your way around it if you can't install Grid by sending
numbers directly to the table_locator subpatch. Look inside for details...]
;
#X text 7 36 Particlechamber is a 32-voice asynchronous granular synthesizer
for real-time transformation of a soundfile. It is loosely based on
the famous Travelizer instrument from Reaktor 3 \, however I think
it's much better because it is FREE!;
#X text 6 112 This abstraction can be used to time-stretch or -compress
a soundfile \, although there are other tools [such as Frank Barknecht's
Synchgrain object] which do this "nicer" \, but it's main strength
is in generating clouds of sonic particles \, time-scrambling a file
\, or creating abstract textures. If one does a bit of reverse engineering
\, it can also be used as a tool for learning about the techniques
of granular synthesis. I have left a subpatch inside the granreader
subpatch where others can add their own grain-level events \, such
as randomized or constant-Q filters or windowed envelopes \, to see
what is possible with this technique. Of course \, I can only highly
recommend Curtis Road's amazing book "Microsound" for those interested
in learning more.;
#X restore 1812 307 pd README;
#X obj 1315 60 cnv 15 450 40 empty empty Particlechamber 8 12 0 18
-233017 -66577 0;
#X text 1383 102 32-voice asynchronous granular synthesizer;
#X obj 1685 431 cnv 15 200 40 empty empty empty 8 12 0 18 -233017 -66577
0;
#X text 1776 454 derek@umatic.nl;
#X floatatom 1344 374 5 0 0 0 - - -, f 5;
#X floatatom 1477 368 5 0 0 0 - - -, f 5;
#X obj 1396 340 bng 15 250 50 0 empty empty empty 17 7 0 10 -262144
-1 -1;
#X obj 1077 344 r gran1gain;
#X obj 1077 406 pack 0 50;
#X obj 1079 266 pack 0 50;
#X obj 1067 136 * -1;
#X obj 1103 85 r gran1pan;
#X obj 1079 245 r gran1-mute;
#X obj 1077 365 + 100;
#X obj 1077 385 dbtorms;
#N canvas 40 140 1042 690 scanner 0;
#X obj 136 19 r readspread;
#X obj 136 110 s 1-zample_start_sprd;
#X obj 136 47 / 100;
#X obj 318 16 r 1-zample_envelope_min;
#X obj 358 54 r 1-zample_sustain_min;
#X obj 318 55 * 2;
#X obj -1 171 random_range 0 0;
#X obj 52 104 * -1;
#X obj -1 216 line;
#X obj -1 265 +;
#X obj 6 424 s 1-zample_start_min;
#X obj 52 74 / 10;
#X obj 52 47 r jitter;
#X obj -1 138 metro 100;
#X obj -1 194 pack 0 5;
#X obj 15 19 r readpositionout;
#X obj 318 148 f;
#X obj 358 148 f;
#X obj 358 117 t b f;
#X obj 318 117 t b f;
#X obj 318 170 +;
#X obj 318 192 s ave_g_length;
#X floatatom 120 147 5 0 0 0 - - -, f 5;
#X floatatom 130 189 5 0 0 0 - - -, f 5;
#X floatatom 106 225 5 0 0 0 - - -, f 5;
#X floatatom 105 325 5 0 0 0 - - -, f 5;
#X connect 0 0 2 0;
#X connect 2 0 1 0;
#X connect 3 0 5 0;
#X connect 4 0 18 0;
#X connect 5 0 19 0;
#X connect 6 0 14 0;
#X connect 6 0 24 0;
#X connect 7 0 6 1;
#X connect 7 0 23 0;
#X connect 8 0 9 0;
#X connect 9 0 10 0;
#X connect 9 0 25 0;
#X connect 11 0 7 0;
#X connect 11 0 6 2;
#X connect 11 0 22 0;
#X connect 12 0 11 0;
#X connect 13 0 6 0;
#X connect 14 0 8 0;
#X connect 15 0 9 1;
#X connect 15 0 13 0;
#X connect 16 0 20 0;
#X connect 17 0 20 1;
#X connect 18 0 17 0;
#X connect 18 0 16 0;
#X connect 18 1 17 1;
#X connect 19 0 17 0;
#X connect 19 0 16 0;
#X connect 19 1 16 1;
#X connect 20 0 21 0;
#X restore 964 62 pd scanner;
#X obj 1079 287 line~;
#X obj 1047 316 *~;
#X obj 1168 315 *~;
#X obj 1077 426 line~;
#X obj 1046 455 *~;
#X obj 1167 455 *~;
#X obj 1183 157 pack 0 50;
#X obj 1103 110 / 100;
#X obj 1067 159 pack 0 50;
#X obj 1046 205 *~;
#X obj 1167 205 *~;
#X obj 1068 180 line~;
#X obj 1183 178 line~;
#X obj 1103 136 - 1;
#X obj 1045 62 filegranulator 1 1;
#X obj 931 344 r \$0-grangain_db;
#X obj 972 219 r \$0-granmute;
#X obj 632 599 *~ 0.5;
#X obj 474 597 *~ 0.5;
#X obj 1112 535 r \$0-zample_idx_number;
#X obj 128 95 noise~;
#X obj 131 233 bp~ 0 50;
#X obj 477 99 noise~;
#X obj 473 223 bp~ 0 50;
#X obj 793 90 noise~;
#X obj 794 247 bp~ 0 50;
#X obj 49 128 r \$0-p1_f1;
#X obj 49 175 line;
#X obj 150 168 line;
#X obj 150 121 r \$0-p1_f2;
#X obj 97 365 +~;
#X obj 400 382 +~;
#X obj 683 397 +~;
#X obj 794 276 *~ 0.5;
#X obj 401 190 line;
#X obj 401 143 r \$0-p2_f1;
#X obj 496 183 line;
#X obj 496 136 r \$0-p2_f2;
#X obj 713 181 line;
#X obj 713 134 r \$0-p3_f1;
#X obj 800 175 line;
#X obj 800 128 r \$0-p3_f2;
#X obj 245 90 noise~;
#X obj 235 230 bp~ 0 50;
#X obj 267 163 line;
#X obj 267 116 r \$0-p1_f3;
#X obj 579 101 noise~;
#X obj 577 220 bp~ 0 50;
#X obj 601 174 line;
#X obj 601 127 r \$0-p2_f3;
#X obj 876 97 noise~;
#X obj 890 240 bp~ 0 50;
#X obj 898 170 line;
#X obj 898 123 r \$0-p3_f3;
#X obj 172 321 +~;
#X obj 497 347 +~;
#X obj 843 352 +~;
#X obj 117 264 *~ 0.4;
#X obj 205 262 *~ 0.1;
#X obj 151 145 pack 0 150;
#X obj 496 160 pack 0 150;
#X obj 800 152 pack 0 150;
#X obj 713 158 pack 0 200;
#X obj 401 167 pack 0 200;
#X obj 49 152 pack 0 200;
#X obj 267 140 pack 0 100;
#X obj 601 151 pack 0 100;
#X obj 898 147 pack 0 100;
#X obj 686 305 *~ 1.4;
#X obj 58 301 *~ 2.1;
#X obj 893 276 *~ 0.1;
#X obj 581 292 *~ 0.03;
#X obj 395 315 *~ 1.9;
#X obj 477 291 *~ 0.9;
#X obj 1237 305 r \$0-zample_pos;
#X obj 1466 277 r \$0-zample_scan_speed;
#X obj 1210 653 r \$0-zample_asynch;
#X obj 1209 729 s 1-zample_asynch;
#X obj 1211 679 pack 0 100;
#X obj 1212 704 line;
#X obj 1239 361 line;
#X obj 1238 336 pack 0 50;
#X obj 1463 335 line;
#X obj 1462 310 pack 0 50;
#X obj 1417 647 r \$0-zample_voices;
#X obj 1416 723 s 1-zample_voices;
#X obj 1630 641 pack 0 100;
#X obj 1631 666 line;
#X obj 1629 615 r \$0-zample_sustain_min;
#X obj 1628 691 s 1-zample_sustain_min;
#X obj 1562 507 pack 0 100;
#X obj 1563 532 line;
#X obj 1561 481 r \$0-zample_envelope_min;
#X obj 1560 557 s 1-zample_envelope_min;
#X obj 1318 453 pack 0 100;
#X obj 1319 478 line;
#X obj 1317 427 r \$0-zample_jitter;
#X obj 1316 503 s 1-zample_jitter;
#X obj 822 666 pack 0 100;
#X obj 823 691 line;
#X obj 821 640 r \$0-zample_spread;
#X obj 820 716 s readspread;
#X obj 658 708 line;
#X obj 656 657 r \$0-zample_pan;
#X obj 655 733 s gran1pan;
#X obj 657 683 pack 0 300;
#X obj 932 574 pack 0 100;
#X obj 933 599 line;
#X obj 931 548 r \$0-zample_envelope_spread;
#X obj 930 624 s 1-zample_envelope_sprd;
#X obj 954 715 pack 0 100;
#X obj 951 742 line;
#X obj 953 689 r \$0-zample_sustain_spread;
#X obj 952 765 s 1-zample_sustain_sprd;
#X connect 1 0 2 0;
#X connect 2 0 139 0;
#X connect 3 0 13 0;
#X connect 4 0 3 1;
#X connect 5 0 6 0;
#X connect 6 0 142 0;
#X connect 7 0 13 1;
#X connect 8 0 7 1;
#X connect 9 0 10 0;
#X connect 10 0 138 0;
#X connect 11 0 13 2;
#X connect 12 0 11 1;
#X connect 13 0 88 0;
#X connect 13 1 87 0;
#X connect 28 0 15 0;
#X connect 47 0 46 2;
#X connect 58 0 46 0;
#X connect 58 0 60 0;
#X connect 59 0 46 1;
#X connect 60 0 59 0;
#X connect 61 0 67 0;
#X connect 62 0 73 0;
#X connect 63 0 70 0;
#X connect 64 0 78 0;
#X connect 65 0 77 0;
#X connect 66 0 63 0;
#X connect 67 0 68 0;
#X connect 68 0 62 0;
#X connect 70 0 71 1;
#X connect 70 0 72 1;
#X connect 71 0 74 0;
#X connect 72 0 75 0;
#X connect 73 0 74 1;
#X connect 73 0 75 1;
#X connect 74 0 88 0;
#X connect 75 0 87 0;
#X connect 76 0 82 0;
#X connect 77 0 83 0;
#X connect 77 0 76 0;
#X connect 78 0 81 0;
#X connect 79 0 71 0;
#X connect 80 0 72 0;
#X connect 81 0 79 1;
#X connect 82 0 80 1;
#X connect 83 0 64 0;
#X connect 84 0 79 0;
#X connect 84 1 80 0;
#X connect 85 0 68 0;
#X connect 86 0 63 0;
#X connect 87 0 0 1;
#X connect 88 0 0 0;
#X connect 89 0 15 0;
#X connect 90 0 91 0;
#X connect 91 0 127 0;
#X connect 92 0 93 0;
#X connect 93 0 143 0;
#X connect 94 0 95 0;
#X connect 95 0 103 0;
#X connect 96 0 134 0;
#X connect 97 0 2 1;
#X connect 98 0 91 1;
#X connect 99 0 129 0;
#X connect 100 0 3 0;
#X connect 101 0 7 0;
#X connect 102 0 11 0;
#X connect 103 0 126 0;
#X connect 104 0 6 1;
#X connect 105 0 133 0;
#X connect 106 0 93 1;
#X connect 107 0 130 0;
#X connect 108 0 10 1;
#X connect 109 0 132 0;
#X connect 110 0 95 1;
#X connect 111 0 131 0;
#X connect 112 0 113 0;
#X connect 113 0 128 0;
#X connect 114 0 113 1;
#X connect 115 0 135 0;
#X connect 116 0 117 0;
#X connect 117 0 141 0;
#X connect 118 0 117 1;
#X connect 119 0 136 0;
#X connect 120 0 121 0;
#X connect 121 0 140 0;
#X connect 122 0 121 1;
#X connect 123 0 137 0;
#X connect 124 0 100 1;
#X connect 125 0 101 1;
#X connect 126 0 102 1;
#X connect 127 0 124 0;
#X connect 128 0 124 1;
#X connect 129 0 98 0;
#X connect 130 0 106 0;
#X connect 131 0 110 0;
#X connect 132 0 108 0;
#X connect 133 0 104 0;
#X connect 134 0 97 0;
#X connect 135 0 114 0;
#X connect 136 0 118 0;
#X connect 137 0 122 0;
#X connect 138 0 102 0;
#X connect 139 0 100 0;
#X connect 140 0 126 1;
#X connect 141 0 125 1;
#X connect 142 0 101 0;
#X connect 143 0 125 0;
#X connect 144 0 151 0;
#X connect 145 0 153 0;
#X connect 146 0 148 0;
#X connect 148 0 149 0;
#X connect 149 0 147 0;
#X connect 150 0 58 0;
#X connect 151 0 150 0;
#X connect 152 0 59 0;
#X connect 153 0 152 0;
#X connect 154 0 155 0;
#X connect 156 0 157 0;
#X connect 157 0 159 0;
#X connect 158 0 156 0;
#X connect 160 0 161 0;
#X connect 161 0 163 0;
#X connect 162 0 160 0;
#X connect 164 0 165 0;
#X connect 165 0 167 0;
#X connect 166 0 164 0;
#X connect 168 0 169 0;
#X connect 169 0 171 0;
#X connect 170 0 168 0;
#X connect 172 0 174 0;
#X connect 173 0 175 0;
#X connect 175 0 172 0;
#X connect 176 0 177 0;
#X connect 177 0 179 0;
#X connect 178 0 176 0;
#X connect 180 0 181 0;
#X connect 181 0 183 0;
#X connect 182 0 180 0;
