#N canvas 198 64 1015 776 10;
#X obj 142 196 osc~;
#X obj 526 599 dac~;
#X obj 355 196 osc~;
#X obj 241 197 osc~;
#X msg 137 132 110;
#X msg 224 135 220;
#X msg 334 128 440;
#X obj 190 248 *~;
#X obj 219 294 +~;
#X obj 266 256 *~;
#X obj 341 247 *~;
#X obj 243 322 +~;
#X obj 140 58 loadbang;
#X obj 411 281 noise~;
#X obj 412 321 bp~ 0 50;
#X obj 285 216 r~ p2;
#X obj 180 190 r~ p1;
#X obj 426 211 r~ p3;
#X msg 474 285 380;
#X obj 411 376 *~;
#X obj 467 355 r~ p1;
#X obj 553 277 noise~;
#X obj 554 317 bp~ 0 50;
#X obj 553 372 *~;
#X obj 609 351 r~ p2;
#X msg 616 281 876;
#X obj 689 276 noise~;
#X obj 690 316 bp~ 0 50;
#X obj 689 371 *~;
#X obj 745 350 r~ p3;
#X msg 752 280 1033;
#X obj 473 243 loadbang;
#N canvas 131 123 1460 772 mixer 0;
#X obj 322 70 inlet~;
#X obj 556 71 inlet~;
#X obj 775 71 inlet~;
#X obj 75 68 inlet~;
#N canvas 126 507 450 300 panner 0;
#X obj 150 27 inlet~;
#X obj 245 27 inlet;
#X obj 248 115 cos~;
#X obj 326 118 cos~;
#X obj 164 179 *~;
#X obj 258 178 *~;
#X obj 327 84 + 0.75;
#X obj 247 53 * 0.25;
#X obj 165 239 outlet~;
#X obj 274 235 outlet~;
#X connect 0 0 5 0;
#X connect 0 0 4 0;
#X connect 1 0 7 0;
#X connect 2 0 4 1;
#X connect 3 0 5 1;
#X connect 4 0 8 0;
#X connect 5 0 9 0;
#X connect 6 0 3 0;
#X connect 7 0 2 0;
#X connect 7 0 6 0;
#X restore 77 226 pd panner;
#X obj 162 410 *~ 0.25;
#X obj 294 409 *~ 0.25;
#N canvas 126 507 450 300 panner 0;
#X obj 150 27 inlet~;
#X obj 245 27 inlet;
#X obj 248 115 cos~;
#X obj 326 118 cos~;
#X obj 164 179 *~;
#X obj 258 178 *~;
#X obj 327 84 + 0.75;
#X obj 247 53 * 0.25;
#X obj 165 239 outlet~;
#X obj 274 235 outlet~;
#X connect 0 0 5 0;
#X connect 0 0 4 0;
#X connect 1 0 7 0;
#X connect 2 0 4 1;
#X connect 3 0 5 1;
#X connect 4 0 8 0;
#X connect 5 0 9 0;
#X connect 6 0 3 0;
#X connect 7 0 2 0;
#X connect 7 0 6 0;
#X restore 307 226 pd panner;
#N canvas 126 507 450 300 panner 0;
#X obj 150 27 inlet~;
#X obj 245 27 inlet;
#X obj 248 115 cos~;
#X obj 326 118 cos~;
#X obj 164 179 *~;
#X obj 258 178 *~;
#X obj 327 84 + 0.75;
#X obj 247 53 * 0.25;
#X obj 165 239 outlet~;
#X obj 274 235 outlet~;
#X connect 0 0 5 0;
#X connect 0 0 4 0;
#X connect 1 0 7 0;
#X connect 2 0 4 1;
#X connect 3 0 5 1;
#X connect 4 0 8 0;
#X connect 5 0 9 0;
#X connect 6 0 3 0;
#X connect 7 0 2 0;
#X connect 7 0 6 0;
#X restore 557 226 pd panner;
#N canvas 126 507 450 300 panner 0;
#X obj 150 27 inlet~;
#X obj 245 27 inlet;
#X obj 248 115 cos~;
#X obj 326 118 cos~;
#X obj 164 179 *~;
#X obj 258 178 *~;
#X obj 327 84 + 0.75;
#X obj 247 53 * 0.25;
#X obj 165 239 outlet~;
#X obj 274 235 outlet~;
#X connect 0 0 5 0;
#X connect 0 0 4 0;
#X connect 1 0 7 0;
#X connect 2 0 4 1;
#X connect 3 0 5 1;
#X connect 4 0 8 0;
#X connect 5 0 9 0;
#X connect 6 0 3 0;
#X connect 7 0 2 0;
#X connect 7 0 6 0;
#X restore 787 226 pd panner;
#X obj 264 628 outlet~;
#X obj 418 636 outlet~;
#X obj 539 417 r \$0-mute;
#X obj 643 416 r \$0-volume;
#X obj 712 384 loadbang;
#X obj 583 382 loadbang;
#X msg 731 413 150;
#X obj 590 534 *~;
#X obj 536 444 pack 1 0;
#X obj 645 442 pack 1 0;
#X obj 644 466 line~ 1 20;
#X obj 536 467 line~ 1 20;
#X msg 606 411 500;
#X obj 297 568 *~;
#X obj 379 568 *~;
#X obj 213 158 r p1_pan;
#X obj 355 179 r p2_pan;
#X obj 593 181 r p3_pan;
#X obj 828 178 r p4_pan;
#X connect 0 0 7 0;
#X connect 1 0 8 0;
#X connect 2 0 9 0;
#X connect 3 0 4 0;
#X connect 4 0 5 0;
#X connect 4 1 6 0;
#X connect 5 0 23 0;
#X connect 6 0 24 0;
#X connect 7 0 5 0;
#X connect 7 1 6 0;
#X connect 8 0 5 0;
#X connect 8 1 6 0;
#X connect 9 0 5 0;
#X connect 9 1 6 0;
#X connect 12 0 18 0;
#X connect 13 0 19 0;
#X connect 14 0 16 0;
#X connect 15 0 22 0;
#X connect 16 0 19 1;
#X connect 17 0 23 1;
#X connect 17 0 24 1;
#X connect 18 0 21 0;
#X connect 19 0 20 0;
#X connect 20 0 17 1;
#X connect 21 0 17 0;
#X connect 22 0 18 1;
#X connect 23 0 10 0;
#X connect 24 0 11 0;
#X connect 25 0 4 1;
#X connect 26 0 7 1;
#X connect 27 0 8 1;
#X connect 28 0 9 1;
#X restore 512 516 pd mixer;
#N canvas 0 23 1423 684 inputs 1;
#X obj 678 114 r \$0-p2;
#X obj 680 144 pack 0 0;
#X obj 680 167 line~ 0 20;
#X msg 803 30 150;
#X obj 680 192 s~ p2;
#X obj 804 58 s interp;
#X obj 740 113 r interp;
#X obj 818 143 pack 0 0;
#X obj 818 166 line~ 0 20;
#X obj 878 112 r interp;
#X obj 816 113 r \$0-p3;
#X obj 818 191 s~ p3;
#X obj 554 143 pack 0 0;
#X obj 554 166 line~ 0 20;
#X obj 614 112 r interp;
#X obj 552 113 r \$0-p1;
#X obj 554 191 s~ p1;
#X obj 801 6 loadbang;
#X obj 56 59 pack 0 0;
#X obj 152 28 r interp;
#X obj 61 177 pack 0 0;
#X obj 157 146 r interp;
#X obj 61 290 pack 0 0;
#X obj 157 259 r interp;
#X obj 56 107 s p1_pan;
#X obj 54 29 r \$0-p1_pan;
#X obj 59 147 r \$0-p2_pan;
#X obj 61 225 s p2_pan;
#X obj 59 260 r \$0-p3_pan;
#X obj 61 338 s p3_pan;
#X obj 56 82 line 0 20;
#X obj 61 200 line 0 20;
#X obj 61 313 line 0 20;
#X obj 980 141 pack 0 0;
#X obj 980 164 line~ 0 20;
#X obj 1040 110 r interp;
#X obj 978 111 r \$0-v1;
#X obj 980 189 s~ v1;
#X obj 1139 139 pack 0 0;
#X obj 1139 162 line~ 0 20;
#X obj 1199 108 r interp;
#X obj 1137 109 r \$0-v2;
#X obj 1139 187 s~ v2;
#X obj 1152 303 pack 0 0;
#X obj 1152 326 line~ 0 20;
#X obj 1212 272 r interp;
#X obj 1150 273 r \$0-tv;
#X obj 1152 351 s~ tv;
#X obj 57 427 pack 0 0;
#X obj 153 396 r interp;
#X obj 57 450 line 0 20;
#X obj 55 397 r \$0-v1_pan;
#X obj 57 475 s v1_pan;
#X obj 56 544 pack 0 0;
#X obj 152 513 r interp;
#X obj 56 567 line 0 20;
#X obj 54 514 r \$0-v2_pan;
#X obj 56 592 s v2_pan;
#X obj 267 427 pack 0 0;
#X obj 363 396 r interp;
#X obj 267 450 line 0 20;
#X obj 265 397 r \$0-tv_pan;
#X obj 267 475 s tv_pan;
#X connect 0 0 1 0;
#X connect 1 0 2 0;
#X connect 2 0 4 0;
#X connect 3 0 5 0;
#X connect 6 0 1 1;
#X connect 7 0 8 0;
#X connect 8 0 11 0;
#X connect 9 0 7 1;
#X connect 10 0 7 0;
#X connect 12 0 13 0;
#X connect 13 0 16 0;
#X connect 14 0 12 1;
#X connect 15 0 12 0;
#X connect 17 0 3 0;
#X connect 18 0 30 0;
#X connect 19 0 18 1;
#X connect 20 0 31 0;
#X connect 21 0 20 1;
#X connect 22 0 32 0;
#X connect 23 0 22 1;
#X connect 25 0 18 0;
#X connect 26 0 20 0;
#X connect 28 0 22 0;
#X connect 30 0 24 0;
#X connect 31 0 27 0;
#X connect 32 0 29 0;
#X connect 33 0 34 0;
#X connect 34 0 37 0;
#X connect 35 0 33 1;
#X connect 36 0 33 0;
#X connect 38 0 39 0;
#X connect 39 0 42 0;
#X connect 40 0 38 1;
#X connect 41 0 38 0;
#X connect 43 0 44 0;
#X connect 44 0 47 0;
#X connect 45 0 43 1;
#X connect 46 0 43 0;
#X connect 48 0 50 0;
#X connect 49 0 48 1;
#X connect 50 0 52 0;
#X connect 51 0 48 0;
#X connect 53 0 55 0;
#X connect 54 0 53 1;
#X connect 55 0 57 0;
#X connect 56 0 53 0;
#X connect 58 0 60 0;
#X connect 59 0 58 1;
#X connect 60 0 62 0;
#X connect 61 0 58 0;
#X restore 365 514 pd inputs;
#X connect 0 0 7 0;
#X connect 2 0 10 0;
#X connect 3 0 9 0;
#X connect 4 0 0 0;
#X connect 5 0 3 0;
#X connect 6 0 2 0;
#X connect 7 0 8 0;
#X connect 8 0 11 0;
#X connect 9 0 8 1;
#X connect 10 0 11 1;
#X connect 12 0 4 0;
#X connect 12 0 5 0;
#X connect 12 0 6 0;
#X connect 13 0 14 0;
#X connect 14 0 19 0;
#X connect 15 0 9 1;
#X connect 16 0 7 1;
#X connect 17 0 10 1;
#X connect 18 0 14 1;
#X connect 19 0 32 0;
#X connect 20 0 19 1;
#X connect 21 0 22 0;
#X connect 22 0 23 0;
#X connect 23 0 32 1;
#X connect 24 0 23 1;
#X connect 25 0 22 1;
#X connect 26 0 27 0;
#X connect 27 0 28 0;
#X connect 28 0 32 2;
#X connect 29 0 28 1;
#X connect 30 0 27 1;
#X connect 31 0 18 0;
#X connect 31 0 25 0;
#X connect 31 0 30 0;
#X connect 32 0 1 0;
#X connect 32 1 1 1;
