#N canvas 448 220 710 666 10;
#X obj 95 55 s 1-zample_number;
#X obj 11 48 cnv 15 450 150 empty empty file_granulator 300 140 0 14
-71869 -66577 0;
#X obj 22 53 tgl 20 1 gran1-mute empty empty 0 -6 0 8 -258699 -1 -1
0 1;
#X obj 51 55 vsl 20 96 -100 20 0 0 gran1gain empty empty 5 12 0 12
-44926 -1 -1 5600 1;
#X obj 86 77 hsl 100 15 2 200 1 1 1-zample_envelope_min empty envelope
6 7 0 8 -262144 -1 -1 5500 1;
#X obj 194 77 nbx 5 14 0 50 0 1 1-zample_envelope_sprd empty range
60 8 0 10 -262144 -1 -1 22 256;
#X obj 86 98 hsl 100 15 1 5000 1 1 1-zample_sustain_min empty length
6 7 0 8 -262144 -1 -1 5900 1;
#X obj 194 99 nbx 5 14 0 100 0 1 1-zample_sustain_sprd empty range
60 8 0 10 -262144 -1 -1 43 256;
#X obj 86 119 hsl 100 15 0 100 0 1 1-zample_gain_min 20-midi gain 6
7 0 8 -262144 -1 -1 1800 1;
#X obj 194 120 nbx 5 14 0 100 0 1 1-zample_gain_sprd empty range 60
8 0 10 -262144 -1 -1 0 256;
#X obj 86 139 hsl 100 15 0 100 0 1 1-zample_pan_sprd empty stereo_spread
6 7 0 8 -262144 -1 -1 2000 1;
#X obj 197 139 hsl 75 15 0 120 0 1 gran1pan empty pan 1 8 0 8 -262144
-1 -1 2100 1;
#X obj 197 158 hsl 75 15 1 32 0 1 1-zample_voices empty vox 15 9 0
8 -262144 -1 -1 3000 1;
#X obj 86 158 hsl 100 15 99 0 0 1 1-zample_asynch empty asynch 15 9
0 8 -262144 -1 -1 9900 1;
#X obj 83 55 hradio 15 1 1 8 empty empty sample_number 20 7 0 8 -262144
-1 -1 0;
#X obj 295 139 nbx 5 14 0 10000 0 1 readspread empty grain_spread 60
7 0 10 -262144 -1 -1 374 256;
#X obj 467 48 cnv 15 200 150 empty empty reverb 130 140 0 14 -71869
-66577 0;
#X obj 476 54 tgl 20 1 rev-mute empty empty 0 -6 0 8 -258699 -1 -1
0 1;
#X obj 505 56 vsl 20 96 -100 20 0 0 reverbgain empty empty 5 12 0 12
-44926 -1 -1 0 1;
#X obj 540 54 hsl 100 15 0 99 0 1 reverb_room empty room_size 6 7 0
8 -262144 -1 -1 9900 1;
#X obj 541 78 hsl 100 15 0 100 0 1 reverb_damp empty damping 6 7 0
8 -262144 -1 -1 6000 1;
#X obj 541 120 hsl 100 15 0 100 0 1 reverb_wetdry empty dry/wet 6 7
0 8 -262144 -1 -1 9800 1;
#X obj 541 140 hsl 100 15 0 127 0 1 reverb_width empty stereo_width
6 7 0 8 -262144 -1 -1 9900 1;
#X obj 295 76 nbx 5 14 -1e+37 1e+37 0 0 readpositionin tableloc scan_target
60 7 0 10 -62784 -1 -1 10 256;
#X obj 295 98 nbx 6 14 -1e+37 1e+37 0 0 empty scan_speed scan_interpolation
60 7 0 10 -62784 -1 -1 0 256;
#X obj 295 159 nbx 5 14 0 10000 0 0 empty ave_g_length ave_grain_length
60 7 0 10 -62784 -1 -1 211.779 256;
#X obj 467 202 cnv 15 200 150 empty empty empty 130 140 0 14 -71869
-66577 0;
#N canvas 0 22 450 300 cpu 0;
#X obj 124 253 outlet;
#X obj 118 168 cputime;
#X obj 118 28 loadbang;
#X obj 118 112 metro 1000;
#X msg 118 56 1;
#X floatatom 118 84 0 0 0 0 - - -;
#X obj 118 140 t b b;
#X obj 118 228 * 0.1;
#X obj 118 197 int;
#X text 163 84 <-- on/off;
#X connect 1 0 8 0;
#X connect 2 0 4 0;
#X connect 3 0 6 0;
#X connect 4 0 5 0;
#X connect 5 0 3 0;
#X connect 6 0 1 0;
#X connect 6 1 1 1;
#X connect 7 0 0 0;
#X connect 8 0 7 0;
#X restore 475 257 pd cpu;
#N canvas 887 161 1079 909 guts 0;
#X obj 185 285 r gran1gain;
#X obj 185 347 pack 0 50;
#X obj 187 207 pack 0 50;
#X obj 175 77 * -1;
#X obj 211 26 r gran1pan;
#X obj 187 186 r gran1-mute;
#X obj 185 306 + 100;
#X obj 185 326 dbtorms;
#X obj 152 460 dac~;
#N canvas 40 140 1042 690 scanner 0;
#X obj 136 19 r readspread;
#X obj 136 110 s 1-zample_start_sprd;
#X obj 136 47 / 100;
#X obj 318 16 r 1-zample_envelope_min;
#X obj 358 54 r 1-zample_sustain_min;
#X obj 318 55 * 2;
#X obj -1 171 random_range 0 0;
#X obj 52 104 * -1;
#X obj -1 216 line;
#X obj -1 265 +;
#X obj 6 424 s 1-zample_start_min;
#X obj 52 74 / 10;
#X obj 52 47 r jitter;
#X obj -1 138 metro 100;
#X obj -1 194 pack 0 5;
#X obj 15 19 r readpositionout;
#X obj 318 148 f;
#X obj 358 148 f;
#X obj 358 117 t b f;
#X obj 318 117 t b f;
#X obj 318 170 +;
#X obj 318 192 s ave_g_length;
#X floatatom 120 147 5 0 0 0 - - -, f 5;
#X floatatom 130 189 5 0 0 0 - - -, f 5;
#X floatatom 106 225 5 0 0 0 - - -, f 5;
#X floatatom 105 325 5 0 0 0 - - -, f 5;
#X connect 0 0 2 0;
#X connect 2 0 1 0;
#X connect 3 0 5 0;
#X connect 4 0 18 0;
#X connect 5 0 19 0;
#X connect 6 0 14 0;
#X connect 6 0 24 0;
#X connect 7 0 6 1;
#X connect 7 0 23 0;
#X connect 8 0 9 0;
#X connect 9 0 10 0;
#X connect 9 0 25 0;
#X connect 11 0 7 0;
#X connect 11 0 6 2;
#X connect 11 0 22 0;
#X connect 12 0 11 0;
#X connect 13 0 6 0;
#X connect 14 0 8 0;
#X connect 15 0 9 1;
#X connect 15 0 13 0;
#X connect 16 0 20 0;
#X connect 17 0 20 1;
#X connect 18 0 17 0;
#X connect 18 0 16 0;
#X connect 18 1 17 1;
#X connect 19 0 17 0;
#X connect 19 0 16 0;
#X connect 19 1 16 1;
#X connect 20 0 21 0;
#X restore 72 3 pd scanner;
#N canvas 89 39 1009 673 reverb 0;
#X obj 192 338 r reverbgain;
#X obj 262 173 / 100;
#X obj 190 105 / 100;
#X obj 180 63 / 100;
#X obj 357 21 r reverb_wetdry;
#X obj 180 43 r reverb_room;
#X obj 190 85 r reverb_damp;
#X obj 199 128 r reverb_width;
#X obj 192 398 pack 0 50;
#X obj 321 227 pack 0 50;
#X obj 323 198 r rev-mute;
#X obj 143 1 inlet~;
#X obj 170 23 inlet~;
#X obj 143 516 outlet~;
#X obj 257 518 outlet~;
#X obj 192 358 + 100;
#X obj 192 378 dbtorms;
#X obj 324 260 line~;
#X obj 192 417 line~;
#X obj 160 472 *~;
#X obj 272 472 *~;
#X obj 271 310 *~;
#X obj 161 310 *~;
#X obj 143 493 +~;
#X obj 257 496 +~;
#N canvas 663 371 900 489 vfreeverb~ 0;
#N canvas 261 41 778 367 combfilters-left1 0;
#X obj 46 244 +~;
#X obj 61 219 *~ 0.3;
#X obj 61 194 lop~ 1000;
#X obj 231 244 +~;
#X obj 246 219 *~ 0.3;
#X obj 246 194 lop~ 1000;
#X obj 429 218 *~ 0.3;
#X obj 429 193 lop~ 1000;
#X obj 414 241 +~;
#X obj 610 218 *~ 0.3;
#X obj 610 193 lop~ 1000;
#X obj 595 241 +~;
#X obj 61 141 delread~ \$0-comb1left;
#X obj 246 142 delread~ \$0-comb2left;
#X obj 429 141 delread~ \$0-comb3left;
#X obj 610 141 delread~ \$0-comb4left;
#X obj 46 268 delwrite~ \$0-comb1left 100;
#X obj 231 268 delwrite~ \$0-comb2left 100;
#X obj 414 267 delwrite~ \$0-comb3left 100;
#X obj 595 267 delwrite~ \$0-comb4left 100;
#X obj 61 97 r \$0-comb1left;
#X obj 246 97 r \$0-comb2left;
#X obj 429 95 r \$0-comb3left;
#X obj 610 96 r \$0-comb4left;
#X obj 112 170 r \$0-frequency;
#X obj 297 170 r \$0-frequency;
#X obj 480 167 r \$0-frequency;
#X obj 661 167 r \$0-frequency;
#X obj 46 28 inlet~;
#X obj 338 326 outlet~;
#X floatatom 70 119 5 0 0 0 - - -, f 5;
#X floatatom 255 121 5 0 0 0 - - -, f 5;
#X floatatom 439 119 5 0 0 0 - - -, f 5;
#X floatatom 622 121 5 0 0 0 - - -, f 5;
#X obj 279 58 clip 0 0.99;
#X obj 279 29 r \$0-room;
#X connect 0 0 16 0;
#X connect 1 0 0 1;
#X connect 2 0 1 0;
#X connect 3 0 17 0;
#X connect 4 0 3 1;
#X connect 5 0 4 0;
#X connect 6 0 8 1;
#X connect 7 0 6 0;
#X connect 8 0 18 0;
#X connect 9 0 11 1;
#X connect 10 0 9 0;
#X connect 11 0 19 0;
#X connect 12 0 2 0;
#X connect 12 0 29 0;
#X connect 13 0 5 0;
#X connect 13 0 29 0;
#X connect 14 0 7 0;
#X connect 14 0 29 0;
#X connect 15 0 10 0;
#X connect 15 0 29 0;
#X connect 20 0 12 0;
#X connect 20 0 30 0;
#X connect 21 0 13 0;
#X connect 21 0 31 0;
#X connect 22 0 14 0;
#X connect 22 0 32 0;
#X connect 23 0 15 0;
#X connect 23 0 33 0;
#X connect 24 0 2 1;
#X connect 25 0 5 1;
#X connect 26 0 7 1;
#X connect 27 0 10 1;
#X connect 28 0 0 0;
#X connect 28 0 3 0;
#X connect 28 0 8 0;
#X connect 28 0 11 0;
#X connect 34 0 1 1;
#X connect 34 0 4 1;
#X connect 34 0 6 1;
#X connect 34 0 9 1;
#X connect 35 0 34 0;
#X restore 15 100 pd combfilters-left1;
#N canvas 27 56 358 650 diffusor-left 0;
#X obj 51 107 *~ 0.5;
#X obj 36 132 +~;
#X obj 66 132 -~;
#X obj 36 26 inlet~;
#X obj 81 238 *~ 0.5;
#X obj 66 263 +~;
#X obj 96 263 -~;
#X obj 111 368 *~ 0.5;
#X obj 96 393 +~;
#X obj 126 393 -~;
#X obj 141 498 *~ 0.5;
#X obj 126 523 +~;
#X obj 156 523 -~;
#X obj 156 605 outlet~;
#X text 95 28 freeverb's diffusor;
#X obj 156 576 hip~ 5;
#X floatatom 214 70 5 0 0 0 - - -, f 5;
#X floatatom 246 203 5 0 0 0 - - -, f 5;
#X floatatom 280 334 5 0 0 0 - - -, f 5;
#X floatatom 304 464 5 0 0 0 - - -, f 5;
#X obj 51 53 r \$0-allpass1left;
#X obj 51 80 delread~ \$0-allpass1left;
#X obj 36 158 delwrite~ \$0-allpass1left 40;
#X obj 81 186 r \$0-allpass2left;
#X obj 81 211 delread~ \$0-allpass2left;
#X obj 66 290 delwrite~ \$0-allpass2left 40;
#X obj 111 317 r \$0-allpass3left;
#X obj 111 341 delread~ \$0-allpass3left;
#X obj 96 420 delwrite~ \$0-allpass3left 40;
#X obj 141 447 r \$0-allpass4left;
#X obj 141 471 delread~ \$0-allpass4left;
#X obj 126 550 delwrite~ \$0-allpass4left 40;
#X connect 0 0 1 1;
#X connect 1 0 22 0;
#X connect 2 0 5 0;
#X connect 2 0 6 1;
#X connect 3 0 1 0;
#X connect 3 0 2 1;
#X connect 4 0 5 1;
#X connect 5 0 25 0;
#X connect 6 0 8 0;
#X connect 6 0 9 1;
#X connect 7 0 8 1;
#X connect 8 0 28 0;
#X connect 9 0 11 0;
#X connect 9 0 12 1;
#X connect 10 0 11 1;
#X connect 11 0 31 0;
#X connect 12 0 15 0;
#X connect 15 0 13 0;
#X connect 20 0 16 0;
#X connect 20 0 21 0;
#X connect 21 0 0 0;
#X connect 21 0 2 0;
#X connect 23 0 17 0;
#X connect 23 0 24 0;
#X connect 24 0 4 0;
#X connect 24 0 6 0;
#X connect 26 0 18 0;
#X connect 26 0 27 0;
#X connect 27 0 7 0;
#X connect 27 0 9 0;
#X connect 29 0 19 0;
#X connect 29 0 30 0;
#X connect 30 0 10 0;
#X connect 30 0 12 0;
#X restore 15 168 pd diffusor-left;
#N canvas 312 366 778 367 combfilters-left2 0;
#X obj 46 244 +~;
#X obj 61 219 *~ 0.3;
#X obj 61 194 lop~ 1000;
#X obj 231 244 +~;
#X obj 246 219 *~ 0.3;
#X obj 246 194 lop~ 1000;
#X obj 429 218 *~ 0.3;
#X obj 429 193 lop~ 1000;
#X obj 414 241 +~;
#X obj 610 218 *~ 0.3;
#X obj 610 193 lop~ 1000;
#X obj 595 241 +~;
#X obj 112 170 r \$0-frequency;
#X obj 297 170 r \$0-frequency;
#X obj 480 167 r \$0-frequency;
#X obj 661 167 r \$0-frequency;
#X obj 46 28 inlet~;
#X obj 338 326 outlet~;
#X obj 61 90 r \$0-comb5left;
#X obj 61 141 delread~ \$0-comb5left;
#X obj 46 268 delwrite~ \$0-comb5left 100;
#X obj 246 90 r \$0-comb6left;
#X obj 246 142 delread~ \$0-comb6left;
#X obj 231 268 delwrite~ \$0-comb6left 100;
#X obj 429 88 r \$0-comb7left;
#X obj 429 141 delread~ \$0-comb7left;
#X obj 414 267 delwrite~ \$0-comb7left 100;
#X obj 610 89 r \$0-comb8left;
#X obj 610 141 delread~ \$0-comb8left;
#X obj 595 267 delwrite~ \$0-comb8left 100;
#X floatatom 70 116 5 0 0 0 - - -, f 5;
#X floatatom 261 118 5 0 0 0 - - -, f 5;
#X floatatom 440 117 5 0 0 0 - - -, f 5;
#X floatatom 620 116 5 0 0 0 - - -, f 5;
#X obj 279 58 clip 0 0.99;
#X obj 279 28 r \$0-room;
#X connect 0 0 20 0;
#X connect 1 0 0 1;
#X connect 2 0 1 0;
#X connect 3 0 23 0;
#X connect 4 0 3 1;
#X connect 5 0 4 0;
#X connect 6 0 8 1;
#X connect 7 0 6 0;
#X connect 8 0 26 0;
#X connect 9 0 11 1;
#X connect 10 0 9 0;
#X connect 11 0 29 0;
#X connect 12 0 2 1;
#X connect 13 0 5 1;
#X connect 14 0 7 1;
#X connect 15 0 10 1;
#X connect 16 0 0 0;
#X connect 16 0 3 0;
#X connect 16 0 8 0;
#X connect 16 0 11 0;
#X connect 18 0 19 0;
#X connect 18 0 30 0;
#X connect 19 0 2 0;
#X connect 19 0 17 0;
#X connect 21 0 22 0;
#X connect 21 0 31 0;
#X connect 22 0 5 0;
#X connect 22 0 17 0;
#X connect 24 0 25 0;
#X connect 24 0 32 0;
#X connect 25 0 7 0;
#X connect 25 0 17 0;
#X connect 27 0 28 0;
#X connect 27 0 33 0;
#X connect 28 0 10 0;
#X connect 28 0 17 0;
#X connect 34 0 1 1;
#X connect 34 0 4 1;
#X connect 34 0 6 1;
#X connect 34 0 9 1;
#X connect 35 0 34 0;
#X restore 36 134 pd combfilters-left2;
#N canvas 261 41 778 367 combfilters-right1 0;
#X obj 46 244 +~;
#X obj 61 219 *~ 0.3;
#X obj 61 194 lop~ 1000;
#X obj 231 244 +~;
#X obj 246 219 *~ 0.3;
#X obj 246 194 lop~ 1000;
#X obj 429 218 *~ 0.3;
#X obj 429 193 lop~ 1000;
#X obj 414 241 +~;
#X obj 610 218 *~ 0.3;
#X obj 610 193 lop~ 1000;
#X obj 595 241 +~;
#X obj 112 170 r \$0-frequency;
#X obj 297 170 r \$0-frequency;
#X obj 480 167 r \$0-frequency;
#X obj 661 167 r \$0-frequency;
#X obj 46 28 inlet~;
#X obj 338 326 outlet~;
#X floatatom 70 119 5 0 0 0 - - -, f 5;
#X floatatom 255 121 5 0 0 0 - - -, f 5;
#X floatatom 439 119 5 0 0 0 - - -, f 5;
#X floatatom 622 121 5 0 0 0 - - -, f 5;
#X obj 61 141 delread~ \$0-comb1right;
#X obj 246 142 delread~ \$0-comb2right;
#X obj 429 141 delread~ \$0-comb3right;
#X obj 610 141 delread~ \$0-comb4right;
#X obj 61 97 r \$0-comb1right;
#X obj 246 97 r \$0-comb2right;
#X obj 429 95 r \$0-comb3right;
#X obj 610 97 r \$0-comb4right;
#X obj 46 268 delwrite~ \$0-comb1right 100;
#X obj 231 268 delwrite~ \$0-comb2right 100;
#X obj 414 267 delwrite~ \$0-comb3right 100;
#X obj 595 267 delwrite~ \$0-comb4right 100;
#X obj 279 58 clip 0 0.99;
#X obj 279 28 r \$0-room;
#X connect 0 0 30 0;
#X connect 1 0 0 1;
#X connect 2 0 1 0;
#X connect 3 0 31 0;
#X connect 4 0 3 1;
#X connect 5 0 4 0;
#X connect 6 0 8 1;
#X connect 7 0 6 0;
#X connect 8 0 32 0;
#X connect 9 0 11 1;
#X connect 10 0 9 0;
#X connect 11 0 33 0;
#X connect 12 0 2 1;
#X connect 13 0 5 1;
#X connect 14 0 7 1;
#X connect 15 0 10 1;
#X connect 16 0 0 0;
#X connect 16 0 3 0;
#X connect 16 0 8 0;
#X connect 16 0 11 0;
#X connect 22 0 2 0;
#X connect 22 0 17 0;
#X connect 23 0 5 0;
#X connect 23 0 17 0;
#X connect 24 0 7 0;
#X connect 24 0 17 0;
#X connect 25 0 10 0;
#X connect 25 0 17 0;
#X connect 26 0 18 0;
#X connect 26 0 22 0;
#X connect 27 0 19 0;
#X connect 27 0 23 0;
#X connect 28 0 20 0;
#X connect 28 0 24 0;
#X connect 29 0 21 0;
#X connect 29 0 25 0;
#X connect 34 0 1 1;
#X connect 34 0 4 1;
#X connect 34 0 6 1;
#X connect 34 0 9 1;
#X connect 35 0 34 0;
#X restore 208 99 pd combfilters-right1;
#N canvas 312 366 778 367 combfilters-right2 0;
#X obj 46 244 +~;
#X obj 61 219 *~ 0.3;
#X obj 61 194 lop~ 1000;
#X obj 231 244 +~;
#X obj 246 219 *~ 0.3;
#X obj 246 194 lop~ 1000;
#X obj 429 218 *~ 0.3;
#X obj 429 193 lop~ 1000;
#X obj 414 241 +~;
#X obj 610 218 *~ 0.3;
#X obj 610 193 lop~ 1000;
#X obj 595 241 +~;
#X obj 112 170 r \$0-frequency;
#X obj 297 170 r \$0-frequency;
#X obj 480 167 r \$0-frequency;
#X obj 661 167 r \$0-frequency;
#X obj 46 28 inlet~;
#X obj 338 326 outlet~;
#X floatatom 70 116 5 0 0 0 - - -, f 5;
#X floatatom 261 118 5 0 0 0 - - -, f 5;
#X floatatom 440 117 5 0 0 0 - - -, f 5;
#X floatatom 620 116 5 0 0 0 - - -, f 5;
#X obj 279 58 clip 0 0.99;
#X obj 61 90 r \$0-comb5right;
#X obj 246 90 r \$0-comb6right;
#X obj 429 88 r \$0-comb7right;
#X obj 610 89 r \$0-comb8right;
#X obj 61 141 delread~ \$0-comb5right;
#X obj 246 142 delread~ \$0-comb6right;
#X obj 429 141 delread~ \$0-comb7right;
#X obj 610 141 delread~ \$0-comb8right;
#X obj 46 268 delwrite~ \$0-comb5right 100;
#X obj 231 268 delwrite~ \$0-comb6right 100;
#X obj 414 267 delwrite~ \$0-comb7right 100;
#X obj 595 267 delwrite~ \$0-comb8right 100;
#X obj 279 28 r \$0-room;
#X connect 0 0 31 0;
#X connect 1 0 0 1;
#X connect 2 0 1 0;
#X connect 3 0 32 0;
#X connect 4 0 3 1;
#X connect 5 0 4 0;
#X connect 6 0 8 1;
#X connect 7 0 6 0;
#X connect 8 0 33 0;
#X connect 9 0 11 1;
#X connect 10 0 9 0;
#X connect 11 0 34 0;
#X connect 12 0 2 1;
#X connect 13 0 5 1;
#X connect 14 0 7 1;
#X connect 15 0 10 1;
#X connect 16 0 0 0;
#X connect 16 0 3 0;
#X connect 16 0 8 0;
#X connect 16 0 11 0;
#X connect 22 0 1 1;
#X connect 22 0 4 1;
#X connect 22 0 6 1;
#X connect 22 0 9 1;
#X connect 23 0 18 0;
#X connect 23 0 27 0;
#X connect 24 0 19 0;
#X connect 24 0 28 0;
#X connect 25 0 20 0;
#X connect 25 0 29 0;
#X connect 26 0 21 0;
#X connect 26 0 30 0;
#X connect 27 0 2 0;
#X connect 27 0 17 0;
#X connect 28 0 5 0;
#X connect 28 0 17 0;
#X connect 29 0 7 0;
#X connect 29 0 17 0;
#X connect 30 0 10 0;
#X connect 30 0 17 0;
#X connect 35 0 22 0;
#X restore 225 133 pd combfilters-right2;
#N canvas 27 56 358 650 diffusor-right 0;
#X obj 51 107 *~ 0.5;
#X obj 36 132 +~;
#X obj 66 132 -~;
#X obj 36 26 inlet~;
#X obj 81 238 *~ 0.5;
#X obj 66 263 +~;
#X obj 96 263 -~;
#X obj 111 368 *~ 0.5;
#X obj 96 393 +~;
#X obj 126 393 -~;
#X obj 141 498 *~ 0.5;
#X obj 126 523 +~;
#X obj 156 523 -~;
#X obj 156 605 outlet~;
#X text 95 28 freeverb's diffusor;
#X obj 156 576 hip~ 5;
#X floatatom 214 70 5 0 0 0 - - -, f 5;
#X floatatom 244 203 5 0 0 0 - - -, f 5;
#X floatatom 280 334 5 0 0 0 - - -, f 5;
#X floatatom 304 464 5 0 0 0 - - -, f 5;
#X obj 51 53 r \$0-allpass1right;
#X obj 51 80 delread~ \$0-allpass1right;
#X obj 36 158 delwrite~ \$0-allpass1right 40;
#X obj 81 186 r \$0-allpass2right;
#X obj 81 211 delread~ \$0-allpass2right;
#X obj 66 290 delwrite~ \$0-allpass2right 40;
#X obj 111 317 r \$0-allpass3right;
#X obj 111 341 delread~ \$0-allpass3right;
#X obj 96 420 delwrite~ \$0-allpass3right 40;
#X obj 141 447 r \$0-allpass4right;
#X obj 141 471 delread~ \$0-allpass4right;
#X obj 126 550 delwrite~ \$0-allpass4right 40;
#X connect 0 0 1 1;
#X connect 1 0 22 0;
#X connect 2 0 5 0;
#X connect 2 0 6 1;
#X connect 3 0 1 0;
#X connect 3 0 2 1;
#X connect 4 0 5 1;
#X connect 5 0 25 0;
#X connect 6 0 8 0;
#X connect 6 0 9 1;
#X connect 7 0 8 1;
#X connect 8 0 28 0;
#X connect 9 0 11 0;
#X connect 9 0 12 1;
#X connect 10 0 11 1;
#X connect 11 0 31 0;
#X connect 12 0 15 0;
#X connect 15 0 13 0;
#X connect 20 0 16 0;
#X connect 20 0 21 0;
#X connect 21 0 0 0;
#X connect 21 0 2 0;
#X connect 23 0 17 0;
#X connect 23 0 24 0;
#X connect 24 0 4 0;
#X connect 24 0 6 0;
#X connect 26 0 18 0;
#X connect 26 0 27 0;
#X connect 27 0 7 0;
#X connect 27 0 9 0;
#X connect 29 0 19 0;
#X connect 29 0 30 0;
#X connect 30 0 10 0;
#X connect 30 0 12 0;
#X restore 208 169 pd diffusor-right;
#X obj 208 61 *~ 0.015;
#X obj 15 226 *~ 1;
#X obj 208 228 *~ 1;
#X obj 94 228 *~ 1;
#X obj 169 228 *~ 1;
#X obj 115 202 r \$0-dry;
#X obj 229 203 r \$0-wet;
#X obj 36 201 r \$0-wet;
#X obj 94 14 inlet~;
#X obj 208 14 inlet~;
#X obj 15 268 outlet~;
#X obj 169 269 outlet~;
#X obj 312 14 inlet;
#X obj 374 14 inlet;
#X obj 462 14 inlet;
#X obj 544 16 inlet;
#N canvas 0 22 207 207 room 0;
#X obj 32 35 inlet;
#X obj 32 63 * 0.28;
#X obj 32 94 + 0.7;
#X obj 32 160 outlet;
#X text 80 65 scaleroom;
#X text 76 94 offsetroom;
#X obj 47 126 s \$0-room;
#X connect 0 0 1 0;
#X connect 1 0 2 0;
#X connect 2 0 3 0;
#X connect 2 0 6 0;
#X restore 312 45 pd room;
#N canvas 684 169 244 376 frequency 0;
#X obj 60 222 samplerate~;
#X obj 33 8 inlet;
#X obj 33 194 t f b;
#X obj 33 249 *;
#X obj 53 303 s \$0-frequency;
#X obj 33 327 outlet;
#X obj 33 64 * 0.4;
#X text 76 66 scaledamp;
#X obj 33 38 clip 0 2;
#X obj 33 90 t b f;
#X obj 33 141 -;
#X msg 33 116 1;
#X obj 33 168 abs;
#X obj 33 275 * 0.5;
#X text 153 303 for [lop~];
#X connect 0 0 3 1;
#X connect 1 0 8 0;
#X connect 2 0 3 0;
#X connect 2 1 0 0;
#X connect 3 0 13 0;
#X connect 6 0 9 0;
#X connect 8 0 6 0;
#X connect 9 0 11 0;
#X connect 9 1 10 1;
#X connect 10 0 12 0;
#X connect 11 0 10 0;
#X connect 12 0 2 0;
#X connect 13 0 5 0;
#X connect 13 0 4 0;
#X restore 374 45 pd frequency;
#N canvas 0 22 170 187 scalewet 0;
#X obj 22 42 inlet;
#X obj 22 143 outlet;
#X obj 22 73 * 3;
#X text 49 74 scalewet;
#X obj 40 112 s \$0-wet;
#X connect 0 0 2 0;
#X connect 2 0 1 0;
#X connect 2 0 4 0;
#X restore 544 45 pd scalewet;
#N canvas 0 22 220 198 scaledry 0;
#X obj 32 74 * 2;
#X obj 32 40 inlet;
#X obj 32 141 outlet;
#X text 58 75 scaledry;
#X obj 41 105 s \$0-dry;
#X connect 0 0 2 0;
#X connect 0 0 4 0;
#X connect 1 0 0 0;
#X restore 462 45 pd scaledry;
#X floatatom 312 70 5 0 0 0 - - -, f 5;
#X floatatom 374 70 10 0 0 0 - - -, f 10;
#X floatatom 462 69 5 0 0 0 - - -, f 5;
#X floatatom 544 69 5 0 0 0 - - -, f 5;
#N canvas 405 27 635 684 tuning 0;
#X msg 332 81 1139 \, 1211 \, 1300 \, 1379 \, 1445 \, 1514 \, 1580
\, 1640;
#X text 72 57 combfilter tunings left;
#X text 377 56 combfilter tunings right;
#X text 71 360 allpass tunings left;
#X text 383 355 allpass tunings right;
#N canvas 243 170 195 233 sampstoms 0;
#X obj 27 21 inlet;
#X obj 54 86 samplerate~;
#X obj 27 111 /;
#X obj 27 57 t f b;
#X obj 27 136 * 1000;
#X obj 27 162 outlet;
#X connect 0 0 3 0;
#X connect 1 0 2 1;
#X connect 2 0 4 0;
#X connect 3 0 2 0;
#X connect 3 1 1 0;
#X connect 4 0 5 0;
#X restore 30 107 pd sampstoms;
#X msg 30 82 1116 \, 1188 \, 1277 \, 1356 \, 1422 \, 1491 \, 1557 \,
1617;
#X obj 57 188 +;
#X msg 57 159 1;
#X obj 30 135 t f b;
#X obj 87 188 f;
#X obj 30 56 t b b;
#X msg 87 159 0;
#X obj 57 212 pack f \$0;
#X msg 57 238 \$2-comb\$1left;
#X obj 30 282 s;
#X obj 57 265 symbol;
#N canvas 0 22 195 233 sampstoms 0;
#X obj 27 21 inlet;
#X obj 54 86 samplerate~;
#X obj 27 111 /;
#X obj 27 57 t f b;
#X obj 27 136 * 1000;
#X obj 27 162 outlet;
#X connect 0 0 3 0;
#X connect 1 0 2 1;
#X connect 2 0 4 0;
#X connect 3 0 2 0;
#X connect 3 1 1 0;
#X connect 4 0 5 0;
#X restore 332 107 pd sampstoms;
#X obj 359 188 +;
#X msg 359 159 1;
#X obj 332 135 t f b;
#X obj 389 188 f;
#X msg 389 159 0;
#X obj 359 212 pack f \$0;
#X obj 332 282 s;
#X obj 359 265 symbol;
#X obj 332 56 t b b;
#X msg 359 238 \$2-comb\$1right;
#X obj 30 360 t b b;
#N canvas 0 22 195 233 sampstoms 0;
#X obj 27 21 inlet;
#X obj 54 86 samplerate~;
#X obj 27 111 /;
#X obj 27 57 t f b;
#X obj 27 136 * 1000;
#X obj 27 162 outlet;
#X connect 0 0 3 0;
#X connect 1 0 2 1;
#X connect 2 0 4 0;
#X connect 3 0 2 0;
#X connect 3 1 1 0;
#X connect 4 0 5 0;
#X restore 30 411 pd sampstoms;
#X obj 57 492 +;
#X msg 57 463 1;
#X obj 30 439 t f b;
#X obj 87 492 f;
#X msg 87 463 0;
#X obj 57 516 pack f \$0;
#X obj 30 586 s;
#X obj 57 569 symbol;
#X obj 334 356 t b b;
#N canvas 0 22 195 233 sampstoms 0;
#X obj 27 21 inlet;
#X obj 54 86 samplerate~;
#X obj 27 111 /;
#X obj 27 57 t f b;
#X obj 27 136 * 1000;
#X obj 27 162 outlet;
#X connect 0 0 3 0;
#X connect 1 0 2 1;
#X connect 2 0 4 0;
#X connect 3 0 2 0;
#X connect 3 1 1 0;
#X connect 4 0 5 0;
#X restore 334 407 pd sampstoms;
#X obj 361 488 +;
#X msg 361 459 1;
#X obj 334 435 t f b;
#X obj 391 488 f;
#X msg 391 459 0;
#X obj 361 512 pack f \$0;
#X obj 334 582 s;
#X obj 361 565 symbol;
#X obj 30 22 loadbang;
#X obj 332 27 loadbang;
#X obj 30 334 loadbang;
#X obj 334 331 loadbang;
#X obj 268 41 bng 15 250 50 0 empty empty empty 17 7 0 10 -262144 -1
-1;
#X msg 30 386 225 \, 556 \, 441 \, 341;
#X msg 334 380 248 \, 579 \, 464 \, 364;
#X msg 57 542 \$2-allpass\$1left;
#X msg 361 539 \$2-allpass\$1right;
#X text 27 624 Original Freeverb delay line lengths are converted to
milliseconds \, based on samplerate.;
#X connect 0 0 17 0;
#X connect 5 0 9 0;
#X connect 6 0 5 0;
#X connect 7 0 10 0;
#X connect 7 0 13 0;
#X connect 8 0 7 0;
#X connect 9 0 15 0;
#X connect 9 1 8 0;
#X connect 10 0 7 1;
#X connect 11 0 6 0;
#X connect 11 1 12 0;
#X connect 12 0 10 0;
#X connect 13 0 14 0;
#X connect 14 0 16 0;
#X connect 16 0 15 1;
#X connect 17 0 20 0;
#X connect 18 0 21 0;
#X connect 18 0 23 0;
#X connect 19 0 18 0;
#X connect 20 0 24 0;
#X connect 20 1 19 0;
#X connect 21 0 18 1;
#X connect 22 0 21 0;
#X connect 23 0 27 0;
#X connect 25 0 24 1;
#X connect 26 0 0 0;
#X connect 26 1 22 0;
#X connect 27 0 25 0;
#X connect 28 0 53 0;
#X connect 28 1 34 0;
#X connect 29 0 32 0;
#X connect 30 0 33 0;
#X connect 30 0 35 0;
#X connect 31 0 30 0;
#X connect 32 0 36 0;
#X connect 32 1 31 0;
#X connect 33 0 30 1;
#X connect 34 0 33 0;
#X connect 35 0 55 0;
#X connect 37 0 36 1;
#X connect 38 0 54 0;
#X connect 38 1 44 0;
#X connect 39 0 42 0;
#X connect 40 0 43 0;
#X connect 40 0 45 0;
#X connect 41 0 40 0;
#X connect 42 0 46 0;
#X connect 42 1 41 0;
#X connect 43 0 40 1;
#X connect 44 0 43 0;
#X connect 45 0 56 0;
#X connect 47 0 46 1;
#X connect 48 0 11 0;
#X connect 49 0 26 0;
#X connect 50 0 28 0;
#X connect 51 0 38 0;
#X connect 52 0 11 0;
#X connect 52 0 28 0;
#X connect 52 0 26 0;
#X connect 52 0 38 0;
#X connect 53 0 29 0;
#X connect 54 0 39 0;
#X connect 55 0 37 0;
#X connect 56 0 47 0;
#X restore 410 141 pd tuning;
#X connect 0 0 1 0;
#X connect 1 0 7 0;
#X connect 2 0 1 0;
#X connect 3 0 5 0;
#X connect 4 0 5 0;
#X connect 5 0 8 0;
#X connect 6 0 3 0;
#X connect 6 0 0 0;
#X connect 6 0 4 0;
#X connect 6 0 2 0;
#X connect 7 0 16 0;
#X connect 8 0 17 0;
#X connect 9 0 16 0;
#X connect 10 0 17 0;
#X connect 11 0 10 1;
#X connect 11 0 9 1;
#X connect 12 0 8 1;
#X connect 13 0 7 1;
#X connect 14 0 6 0;
#X connect 14 0 9 0;
#X connect 15 0 6 0;
#X connect 15 0 10 0;
#X connect 18 0 22 0;
#X connect 19 0 23 0;
#X connect 20 0 25 0;
#X connect 21 0 24 0;
#X connect 22 0 26 0;
#X connect 23 0 27 0;
#X connect 24 0 29 0;
#X connect 25 0 28 0;
#X restore 164 217 pd vfreeverb~;
#X obj 199 149 / 100;
#X connect 0 0 15 0;
#X connect 1 0 25 4;
#X connect 2 0 25 3;
#X connect 3 0 25 2;
#X connect 4 0 1 0;
#X connect 5 0 3 0;
#X connect 6 0 2 0;
#X connect 8 0 18 0;
#X connect 9 0 17 0;
#X connect 10 0 9 0;
#X connect 11 0 23 0;
#X connect 11 0 25 0;
#X connect 12 0 24 0;
#X connect 12 0 25 1;
#X connect 15 0 16 0;
#X connect 16 0 8 0;
#X connect 17 0 21 1;
#X connect 17 0 22 1;
#X connect 18 0 19 1;
#X connect 18 0 20 1;
#X connect 19 0 23 1;
#X connect 20 0 24 1;
#X connect 21 0 20 0;
#X connect 22 0 19 0;
#X connect 23 0 13 0;
#X connect 24 0 14 0;
#X connect 25 0 22 0;
#X connect 25 0 21 0;
#X restore 153 429 pd reverb;
#X obj 187 228 line~;
#X obj 155 257 *~;
#X obj 276 256 *~;
#X obj 185 367 line~;
#X obj 154 396 *~;
#X obj 275 396 *~;
#X obj 291 98 pack 0 50;
#X obj 211 51 / 100;
#X obj 175 100 pack 0 50;
#X obj 154 146 *~;
#X obj 275 146 *~;
#X obj 176 121 line~;
#X obj 291 119 line~;
#X obj 211 77 - 1;
#X obj 153 3 filegranulator 1 1;
#X obj 39 285 r \$0-grangain_db;
#X obj 33 150 r \$0-granmute;
#X connect 0 0 6 0;
#X connect 1 0 14 0;
#X connect 2 0 11 0;
#X connect 3 0 19 0;
#X connect 4 0 18 0;
#X connect 5 0 2 0;
#X connect 6 0 7 0;
#X connect 7 0 1 0;
#X connect 10 0 8 0;
#X connect 10 1 8 1;
#X connect 11 0 12 1;
#X connect 11 0 13 1;
#X connect 12 0 15 0;
#X connect 13 0 16 0;
#X connect 14 0 15 1;
#X connect 14 0 16 1;
#X connect 15 0 10 0;
#X connect 16 0 10 1;
#X connect 17 0 23 0;
#X connect 18 0 24 0;
#X connect 18 0 17 0;
#X connect 19 0 22 0;
#X connect 20 0 12 0;
#X connect 21 0 13 0;
#X connect 22 0 20 1;
#X connect 23 0 21 1;
#X connect 24 0 3 0;
#X connect 25 0 20 0;
#X connect 25 1 21 0;
#X connect 26 0 7 0;
#X connect 27 0 2 0;
#X restore 474 232 pd guts;
#X text 526 207 click 2 load samples;
#X obj 475 279 nbx 5 14 -1e+37 1e+37 0 0 empty empty empty 0 -6 0 10
-258699 -1 -1 8 256;
#X text 495 304 x 1;
#X obj 474 207 cnv 15 51 16 empty empty empty 20 12 0 14 -233017 -66577
0;
#N canvas 174 23 450 300 load 1;
#X msg 21 44 bang;
#N canvas 0 22 450 300 zample-loader1 1;
#X obj 72 78 inlet;
#X obj 71 110 openpanel;
#X obj 71 195 soundfiler;
#N canvas 0 22 450 300 (subpatch) 0;
#X array 1-zample 1 float 0;
#X coords 0 1 1 -1 120 30 1;
#X restore 130 134 graph;
#X obj 71 251 s 1-zample_size;
#X msg 81 216 \; 1-zample resize \$1;
#X msg 102 169 read -resize -maxsize 1e+07 \$1 1-zample;
#X obj 39 44 r \$0-load_zample_1;
#X connect 0 0 1 0;
#X connect 1 0 6 0;
#X connect 2 0 5 0;
#X connect 2 0 4 0;
#X connect 6 0 2 0;
#X connect 7 0 2 0;
#X restore 41 126 pd zample-loader1;
#N canvas 192 190 450 300 zample-loader2 0;
#X obj 72 78 inlet;
#X obj 71 110 openpanel;
#X obj 71 195 soundfiler;
#N canvas 0 22 450 300 (subpatch) 0;
#X array 2-zample 821436 float 0;
#X coords 0 1 821435 -1 120 30 1;
#X restore 130 134 graph;
#X msg 81 216 \; 2-zample resize \$1;
#X obj 71 251 s 2-zample_size;
#X msg 71 173 read -resize -maxsize 1e+07 \$1 2-zample;
#X connect 0 0 1 0;
#X connect 1 0 6 0;
#X connect 2 0 4 0;
#X connect 2 0 5 0;
#X connect 6 0 2 0;
#X restore 42 148 pd zample-loader2;
#N canvas 0 22 450 300 zample-loader3 0;
#X obj 72 78 inlet;
#X obj 71 110 openpanel;
#X obj 71 195 soundfiler;
#N canvas 0 22 450 300 (subpatch) 0;
#X array 3-zample 1.18776e+06 float 0;
#X coords 0 1 1.18776e+06 -1 120 30 1;
#X restore 130 134 graph;
#X msg 81 216 \; 3-zample resize \$1;
#X obj 71 251 s 3-zample_size;
#X msg 71 173 read -resize -maxsize 1e+07 \$1 3-zample;
#X connect 0 0 1 0;
#X connect 1 0 6 0;
#X connect 2 0 4 0;
#X connect 2 0 5 0;
#X connect 6 0 2 0;
#X restore 171 126 pd zample-loader3;
#N canvas 0 22 450 300 zample-loader4 0;
#X obj 72 78 inlet;
#X obj 71 110 openpanel;
#X obj 71 195 soundfiler;
#N canvas 0 22 450 300 (subpatch) 0;
#X array 4-zample 34924 float 0;
#X coords 0 1 34923 -1 120 30 1;
#X restore 130 134 graph;
#X msg 81 216 \; 4-zample resize \$1;
#X obj 71 251 s 4-zample_size;
#X msg 71 173 read -resize -maxsize 1e+07 \$1 4-zample;
#X connect 0 0 1 0;
#X connect 1 0 6 0;
#X connect 2 0 4 0;
#X connect 2 0 5 0;
#X connect 6 0 2 0;
#X restore 172 148 pd zample-loader4;
#N canvas 0 22 450 300 zample-loader5 0;
#X obj 72 78 inlet;
#X obj 71 110 openpanel;
#X obj 71 195 soundfiler;
#N canvas 0 22 450 300 (subpatch) 0;
#X array 5-zample 8.47884e+06 float 0;
#X coords 0 1 8.47884e+06 -1 120 30 1;
#X restore 130 134 graph;
#X msg 81 216 \; 5-zample resize \$1;
#X obj 71 251 s 5-zample_size;
#X msg 71 173 read -resize -maxsize 1e+07 \$1 5-zample;
#X connect 0 0 1 0;
#X connect 1 0 6 0;
#X connect 2 0 4 0;
#X connect 2 0 5 0;
#X connect 6 0 2 0;
#X restore 41 176 pd zample-loader5;
#N canvas 0 22 450 300 zample-loader6 0;
#X obj 72 78 inlet;
#X obj 71 110 openpanel;
#X obj 71 195 soundfiler;
#N canvas 0 22 450 300 (subpatch) 0;
#X array 6-zample 40320 float 0;
#X coords 0 1 40319 -1 120 30 1;
#X restore 130 134 graph;
#X msg 81 216 \; 6-zample resize \$1;
#X obj 71 251 s 6-zample_size;
#X msg 71 173 read -resize -maxsize 1e+07 \$1 6-zample;
#X connect 0 0 1 0;
#X connect 1 0 6 0;
#X connect 2 0 4 0;
#X connect 2 0 5 0;
#X connect 6 0 2 0;
#X restore 41 199 pd zample-loader6;
#N canvas 0 22 450 300 zample-loader8 0;
#X obj 72 78 inlet;
#X obj 71 110 openpanel;
#X obj 71 195 soundfiler;
#N canvas 0 22 450 300 (subpatch) 0;
#X array 8-zample 1.18776e+06 float 0;
#X coords 0 1 1.18776e+06 -1 120 30 1;
#X restore 130 134 graph;
#X msg 81 216 \; 8-zample resize \$1;
#X obj 71 251 s 8-zample_size;
#X msg 71 173 read -resize -maxsize 1e+07 \$1 8-zample;
#X connect 0 0 1 0;
#X connect 1 0 6 0;
#X connect 2 0 4 0;
#X connect 2 0 5 0;
#X connect 6 0 2 0;
#X restore 171 199 pd zample-loader8;
#X msg 71 44 bang;
#X msg 121 44 bang;
#X msg 173 44 bang;
#X msg 51 74 bang;
#X msg 101 74 bang;
#X msg 151 74 bang;
#X msg 201 74 bang;
#N canvas 0 22 450 300 zample-loader7 0;
#X obj 72 78 inlet;
#X obj 71 110 openpanel;
#X obj 71 195 soundfiler;
#N canvas 0 22 450 300 (subpatch) 0;
#X array 7-zample 34595 float 0;
#X coords 0 1 34594 -1 120 30 1;
#X restore 130 134 graph;
#X msg 81 216 \; 7-zample resize \$1;
#X obj 71 251 s 7-zample_size;
#X msg 71 173 read -resize -maxsize 1e+07 \$1 7-zample;
#X connect 0 0 1 0;
#X connect 1 0 6 0;
#X connect 2 0 4 0;
#X connect 2 0 5 0;
#X connect 6 0 2 0;
#X restore 171 176 pd zample-loader7;
#X connect 0 0 1 0;
#X connect 8 0 2 0;
#X connect 9 0 3 0;
#X connect 10 0 4 0;
#X connect 11 0 5 0;
#X connect 12 0 6 0;
#X connect 13 0 15 0;
#X connect 14 0 7 0;
#X restore 474 207 pd load;
#X obj 86 178 hsl 100 15 0 500 0 1 jitter empty jitter 15 9 0 8 -262144
-1 -1 1200 1;
#X obj 295 120 nbx 5 14 -1e+37 1e+37 0 0 empty 1-zample_start_min current_position
60 7 0 10 -62784 -1 -1 13.4568 256;
#N canvas 540 337 768 651 table_locator 0;
#X obj 229 18 inlet;
#X obj 229 47 select 0;
#X obj 299 47 select 1;
#X obj 363 45 select 2;
#X msg 229 70 1;
#X msg 299 70 10;
#X msg 363 67 100;
#X obj 229 114 line;
#X obj 229 92 pack 0 100;
#X obj -44 18 inlet;
#X obj 170 16 inlet;
#X obj -60 223 line;
#X obj 162 132 *;
#X obj -60 203 pack 0 0;
#X obj 99 169 t b f;
#X obj -60 177 f;
#X obj 170 244 s scan_speed;
#X obj -60 246 s readpositionout;
#X obj -9 275 s tableloc;
#X text -72 -3 x coordinates = read position;
#X text -4 225 range = 0-1000;
#X text 158 -3 y coordinates = scan speed interpolation;
#X text 181 221 range = 0-10000;
#X text 130 306 If you do not have the Grid object \, you can hack
this subpatch to control Particlechamber.;
#X connect 0 0 1 0;
#X connect 0 0 2 0;
#X connect 0 0 3 0;
#X connect 1 0 4 0;
#X connect 2 0 5 0;
#X connect 3 0 6 0;
#X connect 4 0 8 0;
#X connect 5 0 8 0;
#X connect 6 0 8 0;
#X connect 7 0 12 1;
#X connect 8 0 7 0;
#X connect 9 0 15 1;
#X connect 9 0 18 0;
#X connect 10 0 12 0;
#X connect 11 0 17 0;
#X connect 12 0 14 0;
#X connect 12 0 16 0;
#X connect 13 0 11 0;
#X connect 14 0 15 0;
#X connect 14 1 13 1;
#X connect 15 0 13 0;
#X restore 343 330 pd table_locator;
#X obj 475 304 vradio 15 1 1 3 empty empty empty 0 -6 0 8 -262144 -1
-1 0;
#X text 495 319 x 10;
#X text 495 333 x 100;
#X text 536 304 gear-shift for;
#X text 536 319 interpolation;
#X text 536 333 speed;
#N canvas 30 22 877 674 README 0;
#X text 453 209 The freeverb~ external can be downloaded here: http://www.akustische-kunst.org/puredata/main.html
;
#X text 7 320 Operation of Particlechamber:;
#X text 452 341 Asynch randomizes which grains are passed through \,
from almost none to all. Vox activates or deactivates each of the 32
voices. Grain_spread makes small adjustments in the read position \,
which can be used to either add a reverb- or chorus-like effect \,
or to completely time-smear a file. Jitter makes larger adjustments
in the read position \, resulting in various degrees of time-scrambling.
;
#X text 453 441 The XY controller at the bottom determines the read
position in the sample. This controller has an interpolation scale
\, adjustable by the gear-shift on the right. This means that Particlechamber
will scan more slowly or quickly through the file depending on the
cursor's Y position multiplied by the interpolation factor.;
#X text 278 6 Particlechamber by Derek Holzer [Umatic.nl];
#X text 241 565 Particlechamber is free software and comes without
any warrenty that it will do ANYTHING like what I say it will. Enjoy
it all the same.;
#X text 535 623 derek@umatic.nl;
#X text 28 398 The red buttons mute and unmute the file granulator
and the reverb. The large vertical sliders are gain for each section.
The reverb is post-fader from the file granulator \, and can be bypassed
either by muting it or with the wet/dry slider.;
#X text 29 341 Open the Load subpatch and click the bangs to load samples.
It is better to do this before you start playing \, because loading
soundfiles can cause audible glitches in PD's performance. Sorry...
;
#X text 28 468 The envelope is a linear ramp \, so a length of 0 means
a pure triangular "window" for each grain. [(envelope x 2)+ length=
average grain length in ms]. Stereo_spread randomly pans each grain
to a wider or lesser field. The range feature randomizes each parameter
as a percentage plus or minus the given number.;
#X text 453 137 It would be best to take Grid from the PD External
Repository: http://pure-data.sourceforge.net;
#X text 453 172 However \, Yves Degoyon's Grid external can also be
found here: http://ydegoyon.free.fr/software.html;
#X text 453 35 Particlechamber requires a few externals to run. It
uses Freeverb~ for its reverb section [although you could easily replace
it with another reverb] \, and uses Grid as a major GUI element [although
you could hack your way around it if you can't install Grid by sending
numbers directly to the table_locator subpatch. Look inside for details...]
;
#X text 7 36 Particlechamber is a 32-voice asynchronous granular synthesizer
for real-time transformation of a soundfile. It is loosely based on
the famous Travelizer instrument from Reaktor 3 \, however I think
it's much better because it is FREE!;
#X text 6 112 This abstraction can be used to time-stretch or -compress
a soundfile \, although there are other tools [such as Frank Barknecht's
Synchgrain object] which do this "nicer" \, but it's main strength
is in generating clouds of sonic particles \, time-scrambling a file
\, or creating abstract textures. If one does a bit of reverse engineering
\, it can also be used as a tool for learning about the techniques
of granular synthesis. I have left a subpatch inside the granreader
subpatch where others can add their own grain-level events \, such
as randomized or constant-Q filters or windowed envelopes \, to see
what is possible with this technique. Of course \, I can only highly
recommend Curtis Road's amazing book "Microsound" for those interested
in learning more.;
#X restore 594 232 pd README;
#X obj 11 4 cnv 15 450 40 empty empty Particlechamber 8 12 0 18 -233017
-66577 0;
#X text 165 27 32-voice asynchronous granular synthesizer;
#X obj 467 356 cnv 15 200 40 empty empty empty 8 12 0 18 -233017 -66577
0;
#X text 558 379 derek@umatic.nl;
#X obj 92 228 hsl 128 15 0 127 0 0 empty empty empty -2 -8 0 10 -262144
-1 -1 0 1;
#X obj 278 231 hsl 128 15 0 127 0 0 empty empty empty -2 -8 0 10 -262144
-1 -1 0 1;
#X floatatom 102 302 5 0 0 0 - - -, f 5;
#X floatatom 255 268 5 0 0 0 - - -, f 5;
#X obj 178 265 bng 15 250 50 0 empty empty empty 17 7 0 10 -262144
-1 -1;
#X connect 14 0 0 0;
#X connect 27 0 30 0;
#X connect 37 0 36 2;
#X connect 50 0 36 0;
#X connect 50 0 52 0;
#X connect 51 0 36 1;
#X connect 52 0 51 0;
