#N canvas 342 273 999 594 10;
#X obj 142 196 osc~;
#X obj 405 545 dac~;
#X obj 355 196 osc~;
#X obj 241 197 osc~;
#X msg 137 132 110;
#X msg 224 135 220;
#X msg 334 128 440;
#X obj 190 248 *~;
#X obj 678 114 r \$0-p2;
#X obj 219 294 +~;
#X obj 266 256 *~;
#X obj 341 247 *~;
#X obj 243 322 +~;
#X obj 140 58 loadbang;
#X obj 680 144 pack 0 0;
#X obj 680 167 line~ 0 20;
#X msg 803 30 150;
#X obj 411 281 noise~;
#X obj 412 321 bp~ 0 50;
#X obj 680 192 s~ p2;
#X obj 285 216 r~ p2;
#X obj 804 58 s interp;
#X obj 740 113 r interp;
#X obj 818 143 pack 0 0;
#X obj 818 166 line~ 0 20;
#X obj 878 112 r interp;
#X obj 816 113 r \$0-p3;
#X obj 818 191 s~ p3;
#X obj 554 143 pack 0 0;
#X obj 554 166 line~ 0 20;
#X obj 614 112 r interp;
#X obj 552 113 r \$0-p1;
#X obj 554 191 s~ p1;
#X obj 801 6 loadbang;
#X obj 180 190 r~ p1;
#X obj 426 211 r~ p3;
#X msg 474 285 380;
#X obj 411 376 *~;
#X obj 467 355 r~ p1;
#X obj 553 277 noise~;
#X obj 554 317 bp~ 0 50;
#X obj 553 372 *~;
#X obj 609 351 r~ p2;
#X msg 616 281 876;
#X obj 689 276 noise~;
#X obj 690 316 bp~ 0 50;
#X obj 689 371 *~;
#X obj 745 350 r~ p3;
#X msg 752 280 1033;
#X obj 473 243 loadbang;
#X obj 129 395 r \$0-mute;
#X obj 233 394 r \$0-volume;
#X obj 302 362 loadbang;
#X obj 173 360 loadbang;
#X msg 321 391 150;
#X obj 349 483 *~;
#X obj 126 422 pack 1 0;
#X obj 235 420 pack 1 0;
#X obj 234 444 line~ 1 20;
#X obj 126 445 line~ 1 20;
#X obj 408 506 *~;
#X msg 196 389 500;
#X obj 529 421 *~ 0.333;
#X connect 0 0 7 0;
#X connect 2 0 11 0;
#X connect 3 0 10 0;
#X connect 4 0 0 0;
#X connect 5 0 3 0;
#X connect 6 0 2 0;
#X connect 7 0 9 0;
#X connect 8 0 14 0;
#X connect 9 0 12 0;
#X connect 10 0 9 1;
#X connect 11 0 12 1;
#X connect 13 0 4 0;
#X connect 13 0 5 0;
#X connect 13 0 6 0;
#X connect 14 0 15 0;
#X connect 15 0 19 0;
#X connect 16 0 21 0;
#X connect 17 0 18 0;
#X connect 18 0 37 0;
#X connect 20 0 10 1;
#X connect 22 0 14 1;
#X connect 23 0 24 0;
#X connect 24 0 27 0;
#X connect 25 0 23 1;
#X connect 26 0 23 0;
#X connect 28 0 29 0;
#X connect 29 0 32 0;
#X connect 30 0 28 1;
#X connect 31 0 28 0;
#X connect 33 0 16 0;
#X connect 34 0 7 1;
#X connect 35 0 11 1;
#X connect 36 0 18 1;
#X connect 37 0 62 0;
#X connect 38 0 37 1;
#X connect 39 0 40 0;
#X connect 40 0 41 0;
#X connect 41 0 62 0;
#X connect 42 0 41 1;
#X connect 43 0 40 1;
#X connect 44 0 45 0;
#X connect 45 0 46 0;
#X connect 46 0 62 0;
#X connect 47 0 46 1;
#X connect 48 0 45 1;
#X connect 49 0 36 0;
#X connect 49 0 43 0;
#X connect 49 0 48 0;
#X connect 50 0 56 0;
#X connect 51 0 57 0;
#X connect 52 0 54 0;
#X connect 53 0 61 0;
#X connect 54 0 57 1;
#X connect 55 0 60 0;
#X connect 56 0 59 0;
#X connect 57 0 58 0;
#X connect 58 0 55 1;
#X connect 59 0 55 0;
#X connect 60 0 1 0;
#X connect 60 0 1 1;
#X connect 61 0 56 1;
#X connect 62 0 60 1;
